<?xml version="1.0" encoding="utf-8"?><svg viewBox="0 0 52 52" xmlns="http://www.w3.org/2000/svg" xmlns:xlink="http://www.w3.org/1999/xlink"><style>:root>svg{display:none}:root>svg:target{display:block}</style><svg fill="none" viewBox="0 0 52 52" id="arrow" xmlns="http://www.w3.org/2000/svg"><path d="M8.667 26h34.666m0 0-13 13m13-13-13-13"/></svg><svg fill="none" viewBox="0 0 52 52" id="arrow2" xmlns="http://www.w3.org/2000/svg"><path d="M15.167 21.667 26 32.5l10.833-10.833" stroke="#E92300" stroke-width="4" stroke-linecap="round" stroke-linejoin="round"/></svg><svg viewBox="0 0 20 20" id="arrow3" xmlns="http://www.w3.org/2000/svg"><path fill-rule="evenodd" clip-rule="evenodd" d="M5.833 7.5a.833.833 0 0 0-.589 1.422l4.167 4.167a.833.833 0 0 0 1.178 0l4.167-4.167a.834.834 0 0 0-.59-1.422H5.834Z"/></svg><svg fill="none" viewBox="0 0 16 16" id="calendar" xmlns="http://www.w3.org/2000/svg"><path d="M2.667 4.667V6h10.666V4.667A1.333 1.333 0 0 0 12 3.333H4a1.333 1.333 0 0 0-1.333 1.334Z" fill="#E92300"/><path d="M10.667 3.333H12a1.333 1.333 0 0 1 1.333 1.334V6H2.667V4.667A1.333 1.333 0 0 1 4 3.333h1.333m5.334 0V2m0 1.333H5.333m0 0V2M2.667 6.333v6.334A1.333 1.333 0 0 0 4 14h8a1.333 1.333 0 0 0 1.333-1.333V6.333" stroke="#E92300" stroke-width="1.167" stroke-linecap="round" stroke-linejoin="round"/></svg><svg fill="none" viewBox="0 0 16 16" id="clock" xmlns="http://www.w3.org/2000/svg"><g clip-path="url(#ea)" stroke="#E92300" stroke-width="1.333" stroke-linecap="round" stroke-linejoin="round"><path d="M8 14.667A6.667 6.667 0 1 0 8 1.333a6.667 6.667 0 0 0 0 13.334Z"/><path d="M8 4v4l2.667 1.333"/></g><defs><clipPath id="ea"><path fill="#fff" d="M0 0h16v16H0z"/></clipPath></defs></svg><svg fill="none" viewBox="0 0 32 32" id="close" xmlns="http://www.w3.org/2000/svg"><path d="m9.333 9.333 13.333 13.334m-13.333 0L22.666 9.333" stroke="#DDDEDF" stroke-width="2" stroke-linecap="round" stroke-linejoin="round"/></svg><svg viewBox="0 0 32 32" id="facebook" xmlns="http://www.w3.org/2000/svg"><path d="M29.334 16C29.334 8.64 23.36 2.667 16 2.667 8.64 2.667 2.667 8.64 2.667 16c0 6.453 4.587 11.827 10.667 13.067V20h-2.667v-4h2.667v-3.333A4.672 4.672 0 0 1 18 8h3.334v4h-2.667c-.733 0-1.333.6-1.333 1.333V16h4v4h-4v9.267c6.733-.667 12-6.347 12-13.267Z"/></svg><svg viewBox="0 0 32 32" id="heart" xmlns="http://www.w3.org/2000/svg"><path d="M16 28a1.333 1.333 0 0 1-.947-.387L4.693 17.24a7.013 7.013 0 0 1 0-9.867 6.987 6.987 0 0 1 9.867 0L16 8.813l1.44-1.44a6.987 6.987 0 0 1 9.867 0 7.013 7.013 0 0 1 0 9.867l-10.36 10.373A1.33 1.33 0 0 1 16 28ZM9.627 8a4.267 4.267 0 0 0-3.04 1.253 4.32 4.32 0 0 0 0 6.094L16 24.773l9.413-9.426a4.32 4.32 0 0 0 0-6.094 4.427 4.427 0 0 0-6.08 0l-2.386 2.4a1.332 1.332 0 0 1-1.894 0l-2.386-2.4A4.266 4.266 0 0 0 9.627 8Z"/></svg><svg viewBox="0 0 40 40" id="heart-fill" xmlns="http://www.w3.org/2000/svg"><path d="M38 14.688c0 10.937-16.217 19.79-16.908 20.156a1.25 1.25 0 0 1-1.184 0C19.218 34.478 3 25.625 3 14.687A9.698 9.698 0 0 1 12.688 5c3.226 0 6.051 1.388 7.812 3.733C22.26 6.387 25.086 5 28.313 5A9.698 9.698 0 0 1 38 14.688Z"/></svg><svg viewBox="0 0 32 32" id="instagram" xmlns="http://www.w3.org/2000/svg"><path d="M16 11.667a4.334 4.334 0 1 0 0 8.667 4.334 4.334 0 0 0 0-8.667Z"/><path fill-rule="evenodd" clip-rule="evenodd" d="M9.027 4.11a63.335 63.335 0 0 1 13.946 0c2.532.282 4.574 2.275 4.871 4.817.55 4.7.55 9.447 0 14.146-.297 2.542-2.339 4.535-4.87 4.819a63.337 63.337 0 0 1-13.947 0c-2.532-.284-4.574-2.277-4.871-4.817-.55-4.7-.55-9.448 0-14.148.297-2.542 2.339-4.535 4.87-4.818ZM22.667 8a1.333 1.333 0 1 0 0 2.667 1.333 1.333 0 0 0 0-2.667Zm-13 8a6.334 6.334 0 1 1 12.667 0 6.334 6.334 0 0 1-12.667 0Z"/></svg><svg viewBox="0 0 24 24" id="link" xmlns="http://www.w3.org/2000/svg"><g clip-path="url(#ka)"><path d="M10.318 14.901a1.2 1.2 0 0 1-.862-.357 5.73 5.73 0 0 1 0-8.088l4.5-4.5A5.684 5.684 0 0 1 18 .281c1.527 0 2.964.595 4.044 1.675a5.73 5.73 0 0 1 0 8.088L19.987 12.1a1.22 1.22 0 0 1-1.723-1.723l2.056-2.056A3.285 3.285 0 0 0 18 2.718c-.876 0-1.701.342-2.32.962l-4.5 4.5a3.285 3.285 0 0 0 0 4.64 1.22 1.22 0 0 1-.863 2.081h.001Z"/><path d="M6 23.72a5.699 5.699 0 0 1-4.044-1.676 5.73 5.73 0 0 1 0-8.088L4.012 11.9a1.22 1.22 0 0 1 1.724 1.723L3.679 15.68A3.285 3.285 0 0 0 6 21.282a3.26 3.26 0 0 0 2.321-.962l4.5-4.5a3.285 3.285 0 0 0 0-4.64 1.22 1.22 0 0 1 1.724-1.724 5.73 5.73 0 0 1 0 8.088l-4.5 4.5A5.699 5.699 0 0 1 6 23.719Z"/></g><defs><clipPath id="ka"><path fill="#fff" d="M0 0h24v24H0z"/></clipPath></defs></svg><svg fill="none" viewBox="0 0 16 16" id="location" xmlns="http://www.w3.org/2000/svg"><path d="M8 1.333a5.339 5.339 0 0 0-5.333 5.33c-.02 4.297 5.13 7.86 5.333 8.004 0 0 5.353-3.707 5.333-8A5.34 5.34 0 0 0 8 1.333Zm0 8A2.666 2.666 0 1 1 8 4a2.666 2.666 0 1 1 0 5.333Z" fill="#E92300"/></svg><svg viewBox="0 0 24 24" id="mail" xmlns="http://www.w3.org/2000/svg"><path d="M20 4H4c-1.1 0-1.99.9-1.99 2L2 18c0 1.1.9 2 2 2h16c1.1 0 2-.9 2-2V6c0-1.1-.9-2-2-2Zm-.4 4.25-7.07 4.42c-.32.2-.74.2-1.06 0L4.4 8.25a.85.85 0 1 1 .9-1.44L12 11l6.7-4.19a.85.85 0 1 1 .9 1.44Z"/></svg><svg viewBox="0 0 32 32" id="person" xmlns="http://www.w3.org/2000/svg"><path d="M21.122 16.146a12 12 0 0 1 6.864 10.284 1.501 1.501 0 0 1-2.519 1.2 1.5 1.5 0 0 1-.477-1.06 9 9 0 0 0-17.98 0 1.5 1.5 0 0 1-2.996-.14 12 12 0 0 1 6.862-10.284 7.998 7.998 0 1 1 10.246 0ZM21 10a5 5 0 1 0-10 0 5 5 0 0 0 10 0Z"/></svg><svg viewBox="0 0 24 24" id="phone" xmlns="http://www.w3.org/2000/svg"><path d="M6.62 10.79c1.44 2.83 3.76 5.15 6.59 6.59l2.2-2.2c.28-.28.67-.36 1.02-.25 1.12.37 2.32.57 3.57.57a1 1 0 0 1 1 1V20a1 1 0 0 1-1 1A17 17 0 0 1 3 4a1 1 0 0 1 1-1h3.5a1 1 0 0 1 1 1c0 1.25.2 2.45.57 3.57.11.35.03.74-.25 1.02l-2.2 2.2Z"/></svg><svg fill="none" viewBox="0 0 16 16" id="sand" xmlns="http://www.w3.org/2000/svg"><path d="M2 1.5a.5.5 0 0 1 .5-.5h11a.5.5 0 0 1 0 1h-1v1a4.5 4.5 0 0 1-2.557 4.06c-.29.139-.443.377-.443.59v.7c0 .213.154.451.443.59A4.5 4.5 0 0 1 12.5 13v1h1a.5.5 0 0 1 0 1h-11a.5.5 0 0 1 0-1h1v-1a4.5 4.5 0 0 1 2.557-4.06c.29-.139.443-.377.443-.59v-.7c0-.213-.154-.451-.443-.59A4.5 4.5 0 0 1 3.5 3V2h-1a.5.5 0 0 1-.5-.5Zm2.5.5v1a3.5 3.5 0 0 0 1.989 3.158c.533.256 1.011.791 1.011 1.491v.702c0 .7-.478 1.235-1.011 1.491A3.5 3.5 0 0 0 4.5 13v1h7v-1a3.5 3.5 0 0 0-1.989-3.158C8.978 9.586 8.5 9.052 8.5 8.351v-.702c0-.7.478-1.235 1.011-1.491A3.5 3.5 0 0 0 11.5 3V2h-7Z" fill="#E92300"/></svg><svg viewBox="0 0 32 32" id="search" xmlns="http://www.w3.org/2000/svg"><path d="M20.437 23.293a10.5 10.5 0 1 1 1.855-1.855l5.32 5.32a1.311 1.311 0 1 1-1.856 1.855l-5.32-5.32Zm1.435-8.295A7.875 7.875 0 0 0 14 7.008a7.872 7.872 0 0 0-5.525 13.481A7.872 7.872 0 0 0 21.872 15Z"/></svg><svg fill="none" viewBox="0 0 32 32" id="telegram" xmlns="http://www.w3.org/2000/svg"><path d="M26.667 6 4 13.333l8.667 4L22 10.667 15.333 20l4 8.667L26.667 6Z" stroke="#F4F4F4" stroke-width="1.6" stroke-linecap="round" stroke-linejoin="round"/></svg><svg viewBox="0 0 32 32" id="twitter" xmlns="http://www.w3.org/2000/svg"><path d="M29.947 8a11.422 11.422 0 0 1-3.28.92 5.731 5.731 0 0 0 2.507-3.173 11.521 11.521 0 0 1-3.627 1.4C24.494 6 23.014 5.333 21.334 5.333c-3.134 0-5.694 2.56-5.694 5.72 0 .454.054.894.147 1.307A16.259 16.259 0 0 1 4 6.387a5.659 5.659 0 0 0-.773 2.866c0 1.987 1 3.747 2.547 4.747-.947 0-1.827-.267-2.6-.667v.04a5.724 5.724 0 0 0 4.586 5.614 5.6 5.6 0 0 1-2.573.093 5.706 5.706 0 0 0 5.333 3.973 11.36 11.36 0 0 1-7.106 2.454c-.454 0-.907-.027-1.36-.08A16.192 16.192 0 0 0 10.827 28c10.507 0 16.28-8.72 16.28-16.28 0-.253 0-.493-.013-.747 1.12-.8 2.08-1.813 2.853-2.973Z"/></svg><svg viewBox="0 0 32 32" id="youtube" xmlns="http://www.w3.org/2000/svg"><g clip-path="url(#ta)"><path fill-rule="evenodd" clip-rule="evenodd" d="M16 5.333c1.14 0 2.31.03 3.443.078l1.339.064 1.281.076 1.2.081 1.096.085a5.067 5.067 0 0 1 4.659 4.564l.053.567.1 1.213c.093 1.258.163 2.628.163 3.939 0 1.31-.07 2.681-.163 3.939l-.1 1.213-.053.567a5.067 5.067 0 0 1-4.66 4.564l-1.094.084-1.2.082-1.282.076-1.339.064a82.68 82.68 0 0 1-3.443.078 82.679 82.679 0 0 1-3.442-.078l-1.339-.064-1.281-.076-1.2-.082-1.096-.084a5.067 5.067 0 0 1-4.659-4.564l-.053-.567-.1-1.213A54.667 54.667 0 0 1 2.667 16c0-1.31.07-2.681.163-3.939l.1-1.213.053-.567A5.067 5.067 0 0 1 7.64 5.717l1.095-.085 1.2-.081 1.283-.076 1.338-.064A82.677 82.677 0 0 1 16 5.333Zm-2.666 7.434v6.466a.8.8 0 0 0 1.2.694l5.6-3.234a.801.801 0 0 0 0-1.386l-5.6-3.232a.8.8 0 0 0-1.2.693v-.001Z"/></g><defs><clipPath id="ta"><path fill="#fff" d="M0 0h32v32H0z"/></clipPath></defs></svg></svg>