<svg width="228" height="42" viewBox="0 0 228 42" fill="none" xmlns="http://www.w3.org/2000/svg">
<g clip-path="url(#clip0_3_240)">
<path d="M9.51427 32.6029C9.51427 32.6635 9.4531 32.6959 9.33483 32.7039C8.79244 32.7322 8.46619 32.7929 8.35201 32.894C8.25005 32.9102 7.89933 33.5814 7.29985 34.9036C7.16935 35.1907 6.97768 35.6031 6.72075 36.145C6.40674 36.7717 6.21914 37.1842 6.16613 37.3783C6.11311 37.5723 6.08457 37.9241 6.08457 38.4336V41.1387C6.08457 41.2924 6.14982 41.3935 6.28439 41.442C6.41897 41.4905 6.68405 41.5188 7.07963 41.5309C7.28354 41.5309 7.38549 41.5714 7.38549 41.6563C7.38549 41.725 7.29577 41.7574 7.12041 41.7574C7.08371 41.7574 6.97768 41.7533 6.80232 41.7452C6.59025 41.7452 6.29255 41.7412 5.91736 41.7331L4.80811 41.721C4.77956 41.721 4.6613 41.725 4.44924 41.7331C4.19231 41.7412 3.95986 41.7452 3.75595 41.7452L2.88324 41.7574C2.73642 41.7574 2.66302 41.721 2.66302 41.6482C2.66302 41.5754 2.72827 41.539 2.85469 41.539C3.50719 41.5309 3.86606 41.4703 3.93131 41.3652C3.99656 41.3045 4.02919 41.1589 4.02919 40.9365V37.7583C3.77227 37.079 3.32367 36.1571 2.67933 34.9966C2.41425 34.4507 2.03498 33.7674 1.54969 32.9466C1.41919 32.7848 1.19489 32.7039 0.876796 32.7039H0.587249C0.403734 32.7039 0.309937 32.6554 0.309937 32.5543C0.309937 32.4735 0.407812 32.433 0.599484 32.433C0.570937 32.433 0.611718 32.4371 0.717749 32.4452C0.823781 32.4532 0.99914 32.4573 1.24791 32.4573L2.87916 32.4694H3.18502C3.35222 32.4411 3.55205 32.429 3.79266 32.429H4.89783C4.99978 32.429 5.04464 32.429 5.03649 32.429C5.22 32.429 5.3138 32.4654 5.3138 32.5382C5.3138 32.5907 5.29341 32.6231 5.25263 32.6312C5.21185 32.6392 5.04872 32.6473 4.76325 32.6595C4.25756 32.6756 4.00472 32.7848 4.00472 32.9829C4.00472 33.1285 4.03735 33.2741 4.1026 33.4196C4.16785 33.5693 4.38399 34.006 4.75102 34.7338C5.07319 35.3605 5.46061 36.1005 5.90921 36.9416C6.19468 36.4482 6.59841 35.6315 7.12041 34.4952C7.52415 33.642 7.72397 33.1366 7.72397 32.9829C7.72397 32.7848 7.5894 32.6878 7.32432 32.6878C6.92058 32.6959 6.71668 32.6554 6.71668 32.5665C6.71668 32.4654 6.80232 32.4209 6.97768 32.433L7.3651 32.4532C7.62202 32.4654 8.06246 32.4735 8.67826 32.4735H9.20433C9.4164 32.4735 9.52243 32.5139 9.52243 32.5988L9.51427 32.6029Z" fill="black"/>
<path d="M15.3746 38.9107C15.3746 39.8691 14.9871 40.6454 14.2123 41.2358C13.6046 41.7008 12.9358 41.9353 12.2099 41.9353C11.3454 41.9353 10.595 41.632 9.96288 41.0296C9.33077 40.423 9.01675 39.7114 9.01675 38.8865C9.01675 38.0616 9.33077 37.2933 9.96288 36.6909C10.595 36.0884 11.3576 35.7851 12.2507 35.7851C13.1438 35.7851 13.8412 36.0924 14.4529 36.707C15.0646 37.3216 15.3705 38.0576 15.3705 38.9148L15.3746 38.9107ZM13.2866 38.9229C13.2866 37.8109 13.2091 37.0507 13.0541 36.6383C12.8787 36.1814 12.6014 35.9549 12.2181 35.9549C11.8592 35.9549 11.5819 36.1935 11.3821 36.6747C11.1822 37.1559 11.0803 37.815 11.0803 38.656C11.0803 39.8286 11.1986 40.6616 11.4392 41.1549C11.6308 41.5471 11.9 41.7453 12.2507 41.7453C12.683 41.7453 12.9644 41.4946 13.103 40.9932C13.2295 40.5201 13.2947 39.8286 13.2947 38.9229H13.2866Z" fill="black"/>
<path d="M23.3881 41.3288C23.3881 41.4016 23.3106 41.442 23.1515 41.4501C22.3114 41.4784 21.7323 41.5188 21.4102 41.5795C21.088 41.6361 20.8107 41.7412 20.5823 41.8949C20.5252 41.9313 20.4763 41.9474 20.4314 41.9474C20.3947 41.9474 20.3743 41.911 20.3743 41.8383V41.26C20.3743 41.1792 20.3702 41.1064 20.3621 41.0457C19.7871 41.6442 19.159 41.9474 18.4821 41.9474C17.8785 41.9474 17.4014 41.7574 17.0547 41.3813C16.8345 41.1468 16.7244 40.7182 16.7244 40.0874V36.5857C16.7244 36.3876 16.6958 36.2663 16.6347 36.2218C16.5735 36.1773 16.4104 36.149 16.1371 36.1409C15.9006 36.1329 15.7823 36.0965 15.7823 36.0318C15.7823 35.959 15.8476 35.9226 15.974 35.9226H16.1249C16.2636 35.9226 16.4716 35.9307 16.7529 35.9428C17.0343 35.9549 17.226 35.963 17.328 35.963C17.3443 35.963 17.4421 35.9549 17.6093 35.9428C17.7766 35.9307 18.0294 35.9226 18.3638 35.9226H18.6248V37.3783C18.6248 38.0697 18.6166 38.5792 18.5963 38.9027C18.5759 39.2261 18.5677 39.3677 18.5677 39.3232C18.5677 40.2694 18.6289 40.8557 18.7553 41.0902C18.8817 41.3247 19.0734 41.442 19.3426 41.442C19.6484 41.442 19.9339 41.2762 20.199 40.9446C20.2805 40.8476 20.3295 40.7465 20.3458 40.6414C20.358 40.5403 20.3662 40.2855 20.3662 39.8812V37.5643C20.3662 36.9092 20.358 36.5129 20.3376 36.3795C20.3213 36.2097 20.2071 36.1248 19.9991 36.1248H19.6158C19.4894 36.1248 19.4241 36.0884 19.4241 36.0156C19.4241 35.963 19.6729 35.9347 20.1663 35.9347C20.5986 35.9347 21.2797 35.9307 22.2136 35.9226V40.2896C22.2136 40.7101 22.2217 40.9608 22.2421 41.0336C22.2625 41.1104 22.3277 41.163 22.4501 41.1873C22.5317 41.2034 22.7804 41.2156 23.1964 41.2156C23.3147 41.2156 23.3758 41.2519 23.3758 41.3247L23.3881 41.3288Z" fill="black"/>
<path d="M28.6529 36.7879C28.6529 37.0467 28.5754 37.261 28.4164 37.4268C28.2614 37.5926 28.0575 37.6775 27.8088 37.6775C27.3112 37.6775 27.0625 37.4551 27.0625 37.0063C27.0625 36.8526 27.1236 36.703 27.2419 36.5493C27.2704 36.5129 27.2827 36.4806 27.2827 36.4563C27.2827 36.3755 27.2215 36.335 27.1032 36.335C26.7933 36.335 26.5568 36.5736 26.3937 37.0467C26.3039 37.3136 26.2591 37.9727 26.2591 39.0159V41.1711C26.2591 41.4137 26.3855 41.5431 26.6343 41.5593C26.7811 41.5673 26.9564 41.5714 27.1603 41.5714C27.2623 41.5795 27.3112 41.6118 27.3112 41.6644C27.3112 41.7372 27.2704 41.7736 27.1889 41.7736H25.7085C25.7452 41.7736 25.5372 41.7736 25.0886 41.7736H23.5675C23.4656 41.7736 23.4166 41.7453 23.4166 41.6846C23.4166 41.6239 23.4819 41.5956 23.6083 41.5956C23.9876 41.5876 24.2159 41.5471 24.2934 41.4824C24.3709 41.4137 24.4117 41.2156 24.4117 40.888L24.3994 37.2691C24.3994 36.9658 24.3546 36.7556 24.2689 36.6383C24.1833 36.521 23.9876 36.4523 23.6817 36.424C23.4411 36.4078 23.3065 36.3957 23.2739 36.3876C23.2413 36.3795 23.2249 36.3512 23.2249 36.2986C23.2249 36.2461 23.2616 36.2218 23.3351 36.2218H23.8448C24.5544 36.2218 25.317 36.0803 26.1367 35.7932C26.1816 35.9711 26.2061 36.1773 26.2061 36.4119V36.9779C26.3814 36.5453 26.5731 36.238 26.7811 36.0601C26.9891 35.8822 27.2582 35.7932 27.5885 35.7932C27.9026 35.7932 28.1554 35.8862 28.3552 36.0762C28.5551 36.2622 28.6529 36.5008 28.6529 36.7879Z" fill="black"/>
<path d="M41.7111 41.6644C41.7111 41.7533 41.6173 41.7978 41.4338 41.7978H36.8744C36.7439 41.7978 36.6828 41.7614 36.6828 41.6846C36.6828 41.6078 36.748 41.5714 36.8744 41.5714H37.3434C37.7675 41.5795 38.0245 41.5067 38.1183 41.3571C38.1468 41.3126 38.159 41.0417 38.159 40.5484V33.2579C37.8613 34.0019 37.4698 35.1826 36.9845 36.8041L35.7815 40.9163C35.6347 41.4177 35.5123 41.6684 35.4226 41.6684C35.3207 41.6684 35.2309 41.5431 35.1453 41.2924C35.1168 41.2115 34.8231 40.3502 34.2604 38.7126C34.0483 38.0939 33.4733 36.3633 32.5312 33.5126V40.4796C32.5312 40.884 32.5353 41.1225 32.5435 41.1994C32.5516 41.2762 32.5924 41.3409 32.6658 41.3935C32.8045 41.5107 33.041 41.5633 33.3713 41.5552C33.7016 41.5471 33.8689 41.5956 33.8689 41.7048C33.8689 41.7695 33.7995 41.7978 33.6609 41.7978L32.4293 41.7452C32.2172 41.7372 31.9725 41.7452 31.6952 41.7614C31.3282 41.7857 31.0794 41.7978 30.9489 41.7978C30.7572 41.7978 30.6594 41.7574 30.6594 41.6765C30.6594 41.6037 30.7368 41.5673 30.8959 41.5673C31.2629 41.5673 31.4872 41.5633 31.5606 41.5552C31.8461 41.5188 32.0133 41.4177 32.0582 41.2438C32.0867 41.1347 32.0989 40.9123 32.0989 40.5726V34.1556C32.0989 33.4399 32.0541 33.0193 31.9684 32.898C31.8828 32.7767 31.5525 32.7161 30.9815 32.7161C30.8347 32.7161 30.7613 32.6756 30.7613 32.5948C30.7613 32.5058 30.8388 32.4654 30.9938 32.4735H33.9667C33.9953 32.4735 34.0442 32.4775 34.1176 32.4896C34.9047 34.9643 35.5694 37.0224 36.1159 38.656L37.9837 32.4694H38.2732H40.1002H41.3441C41.5276 32.4694 41.6214 32.5058 41.6214 32.5826C41.6214 32.6676 41.5643 32.7039 41.4542 32.6959H41.1361C40.7487 32.6797 40.4877 32.712 40.3572 32.805C40.2226 32.894 40.1573 33.0679 40.1573 33.3307V40.9204C40.1573 41.2438 40.243 41.4299 40.4183 41.4784C40.5937 41.5269 40.8506 41.5471 41.1932 41.539C41.5357 41.5309 41.707 41.5714 41.707 41.6603L41.7111 41.6644Z" fill="black"/>
<path d="M48.3584 38.9107C48.3584 39.8691 47.971 40.6454 47.1962 41.2358C46.5885 41.7008 45.9197 41.9353 45.1938 41.9353C44.3293 41.9353 43.5789 41.632 42.9468 41.0296C42.3147 40.423 42.0006 39.7114 42.0006 38.8865C42.0006 38.0616 42.3147 37.2933 42.9468 36.6909C43.5789 36.0884 44.3415 35.7851 45.2346 35.7851C46.1277 35.7851 46.8251 36.0924 47.4368 36.707C48.0485 37.3216 48.3544 38.0576 48.3544 38.9148L48.3584 38.9107ZM46.2704 38.9229C46.2704 37.8109 46.193 37.0507 46.038 36.6383C45.8626 36.1814 45.5853 35.9549 45.202 35.9549C44.8431 35.9549 44.5658 36.1935 44.366 36.6747C44.1661 37.1559 44.0642 37.815 44.0642 38.656C44.0642 39.8286 44.1824 40.6616 44.4231 41.1549C44.6147 41.5471 44.8839 41.7453 45.2346 41.7453C45.6669 41.7453 45.9483 41.4946 46.0869 40.9932C46.2133 40.5201 46.2786 39.8286 46.2786 38.9229H46.2704Z" fill="black"/>
<path d="M55.5563 38.6843C55.5563 39.8124 55.0955 40.6858 54.1738 41.3045C53.5377 41.725 52.8729 41.9353 52.1837 41.9353C51.9268 41.9353 51.5516 41.8544 51.0663 41.6927C50.8094 41.6037 50.6096 41.5592 50.4709 41.5592C50.2221 41.5592 49.9693 41.6482 49.7124 41.8261C49.6553 41.8625 49.6145 41.8787 49.59 41.8787C49.5248 41.8787 49.4881 41.8504 49.4799 41.7978C49.4718 41.7452 49.4677 41.5835 49.4677 41.3126V33.4277C49.4677 33.1932 49.4228 33.0436 49.3372 32.9708C49.2515 32.898 49.0639 32.8616 48.7703 32.8616C48.5256 32.8616 48.4033 32.8293 48.4033 32.7686C48.4033 32.708 48.4604 32.6756 48.5705 32.6756C49.6186 32.6756 50.528 32.5624 51.3028 32.34L51.3151 32.5543V36.517C51.6821 36.0237 52.1919 35.777 52.8444 35.777C53.6355 35.777 54.284 36.0479 54.7937 36.5898C55.3035 37.1316 55.5563 37.8271 55.5563 38.6803V38.6843ZM53.4969 38.7369C53.4969 36.9982 53.1217 36.1328 52.3795 36.1328C51.9635 36.1328 51.6617 36.3188 51.466 36.6949C51.3926 36.8405 51.3477 37.0062 51.3355 37.2003C51.3232 37.3944 51.3151 37.9403 51.3151 38.846V39.6669C51.3151 40.5079 51.3722 41.0659 51.4864 41.3409C51.6005 41.6159 51.833 41.7493 52.1837 41.7493C52.6609 41.7493 52.9993 41.5228 53.1992 41.0659C53.399 40.609 53.4969 39.8367 53.4969 38.7409V38.7369Z" fill="black"/>
<path d="M59.9077 41.6765C59.9077 41.7412 59.8669 41.7695 59.7854 41.7695H56.3026C56.1925 41.7695 56.1395 41.7412 56.1395 41.6846C56.1395 41.6401 56.2455 41.6159 56.4576 41.6078C56.7716 41.5997 56.9551 41.5633 57.0122 41.5067C57.0693 41.446 57.0938 41.2722 57.0938 40.9729V37.0993C57.0938 36.7556 57.0653 36.5534 57.0041 36.4846C56.9429 36.4159 56.7635 36.3836 56.4576 36.3836C56.2659 36.3836 56.1518 36.3795 56.1191 36.3714C56.0865 36.3633 56.0702 36.331 56.0702 36.2784C56.0702 36.2178 56.1395 36.1854 56.2782 36.1854C57.2895 36.1773 58.1582 36.0237 58.8759 35.7285C58.8923 35.8377 58.9167 36.1329 58.9453 36.614V40.8436C58.9453 41.2115 58.9779 41.4258 59.0472 41.4865C59.1165 41.5471 59.3531 41.5795 59.7609 41.5795C59.8628 41.5795 59.9118 41.6118 59.9118 41.6725L59.9077 41.6765ZM58.9412 33.1609C58.9412 33.4116 58.8515 33.6259 58.672 33.8038C58.4926 33.9817 58.2765 34.0707 58.0236 34.0707C57.7708 34.0707 57.5383 33.9858 57.3589 33.8159C57.1794 33.6461 57.0897 33.4318 57.0897 33.173C57.0897 32.9142 57.1794 32.7161 57.3589 32.5543C57.5383 32.3926 57.7667 32.3117 58.0522 32.3117C58.305 32.3117 58.5171 32.3926 58.6883 32.5543C58.8596 32.7161 58.9412 32.9183 58.9412 33.1609Z" fill="black"/>
<path d="M63.8472 41.6725C63.8472 41.7412 63.6718 41.7736 63.3252 41.7736C63.2436 41.7736 62.9867 41.7655 62.5544 41.7453C62.3342 41.7372 62.1181 41.7331 61.906 41.7331C61.6939 41.7331 61.3269 41.7412 60.7763 41.7614L60.3645 41.7736C60.1606 41.7817 60.0627 41.7533 60.0627 41.6806C60.0627 41.6078 60.1687 41.5795 60.3808 41.5876C60.7029 41.5956 60.8905 41.5673 60.9395 41.4946C60.9884 41.4218 61.017 41.1549 61.017 40.6899V33.6218C61.017 33.3186 60.9843 33.1366 60.9191 33.08C60.8538 33.0234 60.6622 32.991 60.3441 32.991C60.1116 32.991 59.9933 32.9587 59.9933 32.89C59.9933 32.8131 60.1116 32.7727 60.3522 32.7606C61.3799 32.7242 62.2159 32.5746 62.8684 32.3036V40.3624C62.8684 40.9729 62.8847 41.3288 62.9174 41.4299C62.95 41.531 63.0642 41.5795 63.2558 41.5714H63.6718C63.7901 41.5714 63.8513 41.6037 63.8513 41.6725H63.8472Z" fill="black"/>
<path d="M69.7197 40.1198C69.7197 40.3179 69.6014 40.5767 69.3608 40.9002C68.8429 41.5916 68.1741 41.9353 67.3421 41.9353C66.4123 41.9353 65.6456 41.6482 65.0502 41.074C64.4507 40.4999 64.153 39.768 64.153 38.8703C64.153 37.9727 64.4426 37.261 65.0217 36.6747C65.6008 36.0884 66.3267 35.7932 67.1912 35.7932C67.7826 35.7932 68.2842 35.9185 68.6961 36.1692C69.1569 36.4482 69.4546 36.8445 69.5933 37.3661C69.63 37.5279 69.6585 37.722 69.6748 37.9443C69.4628 37.9686 68.6104 37.9848 67.1178 37.9969C66.8895 37.9969 66.5958 38.005 66.2492 38.0252C66.2207 38.3447 66.2084 38.6196 66.2084 38.842C66.2084 39.8852 66.4327 40.6252 66.8854 41.0619C67.1505 41.3207 67.4808 41.4501 67.8682 41.4501C68.1904 41.4501 68.5003 41.3409 68.8021 41.1266C69.0998 40.9123 69.3282 40.6333 69.4872 40.2936C69.5606 40.1238 69.6218 40.0389 69.6667 40.0389C69.7034 40.0389 69.7238 40.0672 69.7238 40.1198H69.7197ZM67.9783 37.7705C67.9865 37.0871 67.9376 36.61 67.8274 36.3431C67.7173 36.0762 67.5216 35.9428 67.2483 35.9428C66.6856 35.9428 66.3634 36.5534 66.2818 37.7705H67.9824H67.9783Z" fill="black"/>
<path d="M84.9066 32.5827C84.9066 32.6554 84.8373 32.6959 84.6986 32.704C84.2827 32.7201 84.0217 32.7687 83.9116 32.8455C83.8015 32.9223 83.675 33.1487 83.5364 33.5248C83.4548 33.731 83.3284 34.0424 83.1653 34.4629C83.047 34.8106 82.8553 35.3484 82.5984 36.0763C82.4679 36.4159 82.2722 36.9294 82.0152 37.6209L81.3342 39.4607C80.8611 40.7627 80.5961 41.5107 80.543 41.7089C80.5063 41.8261 80.4656 41.8827 80.4166 41.8827C80.3595 41.8827 80.3147 41.8383 80.278 41.7534C80.2413 41.6684 80.1352 41.3611 79.9599 40.8314C79.7274 40.1319 79.393 39.2666 78.9485 38.2274L78.4795 37.1276C77.5578 39.0442 76.8972 40.5646 76.4935 41.6927C76.4486 41.818 76.3956 41.8787 76.3426 41.8787C76.3059 41.8787 76.1917 41.6401 75.9959 41.167L74.3117 36.889C73.9079 35.8134 73.3859 34.5316 72.7497 33.0436C72.6845 32.8819 72.5785 32.7848 72.4316 32.7484C72.3501 32.7201 72.187 32.708 71.9463 32.708C71.7057 32.708 71.5875 32.6676 71.5875 32.5867C71.5875 32.5139 71.6527 32.4775 71.7791 32.4775C71.771 32.4775 71.9219 32.4775 72.2359 32.4775H75.4127C75.531 32.4775 75.5922 32.522 75.5922 32.611C75.5922 32.6918 75.4454 32.7282 75.1517 32.7161C74.9968 32.7161 74.9152 32.7565 74.9152 32.8374C74.9152 32.8738 74.9234 32.9142 74.9438 32.9587C75.1477 33.5005 75.4535 34.3092 75.8654 35.3889L77.2846 38.9391L78.2511 36.7879C78.1166 36.3957 77.8555 35.6921 77.464 34.6772C77.3906 34.5195 77.2887 34.2769 77.1582 33.9494C77.1296 33.8685 77.0848 33.7472 77.0195 33.5774C76.8605 33.173 76.7341 32.9264 76.6321 32.8414C76.5302 32.7565 76.3181 32.7161 75.9918 32.7161C75.898 32.708 75.8532 32.6676 75.8532 32.5988C75.8532 32.518 75.9388 32.4816 76.1142 32.4816C76.0856 32.4816 76.1346 32.4816 76.261 32.4816H81.6971C81.8725 32.4735 81.9581 32.5139 81.9581 32.6029C81.9581 32.6757 81.8888 32.708 81.7502 32.708C81.0977 32.6999 80.7184 32.805 80.6164 33.0274C80.4615 33.2701 80.1311 33.9494 79.6336 35.0735C79.9517 35.8781 80.4615 37.1518 81.167 38.8946C81.3179 38.5266 81.4728 38.1223 81.6441 37.6734C81.7909 37.2974 82.0356 36.6585 82.366 35.7528C82.578 35.1543 82.7615 34.6651 82.9084 34.289C83.1571 33.6542 83.2835 33.2417 83.2835 33.0557C83.2835 32.8697 83.1897 32.7646 83.0062 32.7201C82.941 32.704 82.7779 32.6918 82.5087 32.6918C82.3619 32.6918 82.2885 32.6554 82.2885 32.5827C82.2885 32.5099 82.3578 32.4735 82.4965 32.4735H83.5894C84.0584 32.4816 84.4132 32.4816 84.6538 32.4735H84.7639C84.8577 32.4735 84.9026 32.5099 84.9026 32.5827H84.9066ZM80.1678 33.0638C80.1678 32.8253 79.9476 32.704 79.5031 32.704C79.0586 32.704 78.8261 32.7848 78.8261 32.9425C78.8261 33.1649 79.0464 33.7351 79.4909 34.6489C79.9436 33.7431 80.1678 33.2134 80.1678 33.0598V33.0638Z" fill="black"/>
<path d="M88.4138 41.6765C88.4138 41.7412 88.373 41.7695 88.2915 41.7695H84.8088C84.6986 41.7695 84.6456 41.7412 84.6456 41.6846C84.6456 41.6401 84.7517 41.6159 84.9637 41.6078C85.2777 41.5997 85.4612 41.5633 85.5183 41.5067C85.5754 41.446 85.5999 41.2722 85.5999 40.9729V37.0993C85.5999 36.7556 85.5714 36.5534 85.5102 36.4846C85.449 36.4159 85.2696 36.3836 84.9637 36.3836C84.772 36.3836 84.6579 36.3795 84.6252 36.3714C84.5926 36.3633 84.5763 36.331 84.5763 36.2784C84.5763 36.2178 84.6456 36.1854 84.7843 36.1854C85.7957 36.1773 86.6643 36.0237 87.382 35.7285C87.3984 35.8377 87.4228 36.1329 87.4514 36.614V40.8436C87.4514 41.2115 87.484 41.4258 87.5533 41.4865C87.6227 41.5471 87.8592 41.5795 88.267 41.5795C88.369 41.5795 88.4179 41.6118 88.4179 41.6725L88.4138 41.6765ZM87.4473 33.1609C87.4473 33.4116 87.3576 33.6259 87.1781 33.8038C86.9987 33.9817 86.7826 34.0707 86.5297 34.0707C86.2769 34.0707 86.0444 33.9858 85.865 33.8159C85.6855 33.6461 85.5958 33.4318 85.5958 33.173C85.5958 32.9142 85.6855 32.7161 85.865 32.5543C86.0444 32.3926 86.2728 32.3117 86.5583 32.3117C86.8111 32.3117 87.0232 32.3926 87.1945 32.5543C87.3657 32.7161 87.4473 32.9183 87.4473 33.1609Z" fill="black"/>
<path d="M95.9461 41.6765C95.9461 41.7493 95.8319 41.7857 95.5995 41.7857H92.6429C92.5124 41.7857 92.4512 41.7533 92.4512 41.6846C92.4512 41.628 92.5042 41.5956 92.6143 41.5956H92.7244C92.9609 41.5956 93.0955 41.5673 93.1363 41.5067C93.1771 41.4501 93.1975 41.2479 93.1975 40.9042V38.3002C93.1975 37.3378 93.1322 36.7596 93.0058 36.5736C92.8957 36.4119 92.6999 36.331 92.4226 36.331C92.1453 36.331 91.9088 36.4159 91.7293 36.5857C91.5499 36.7556 91.4561 36.9699 91.4561 37.2286V41.2883C91.4724 41.3935 91.5132 41.4663 91.5744 41.4946C91.6356 41.5229 91.7824 41.5471 92.023 41.5552C92.0964 41.5552 92.1331 41.5835 92.1331 41.6361C92.1331 41.6886 92.1005 41.721 92.0352 41.7291C91.97 41.7372 91.7416 41.7412 91.346 41.7412C90.9504 41.7412 90.6242 41.7453 90.3632 41.7533C89.8575 41.7695 89.3396 41.7816 88.8176 41.7816C88.7075 41.7816 88.6504 41.7493 88.6504 41.6886C88.6504 41.6159 88.789 41.5835 89.0704 41.5835C89.3518 41.5835 89.5149 41.5309 89.5598 41.4218L89.6006 41.2358V38.1546C89.6006 37.2893 89.5924 36.8364 89.572 36.8C89.5435 36.6666 89.4211 36.5979 89.1968 36.5979H88.7279C88.581 36.5979 88.5076 36.5696 88.5076 36.5089C88.5076 36.4482 88.5606 36.4159 88.6708 36.4078C89.6984 36.3633 90.5181 36.1531 91.1339 35.777C91.2074 35.7406 91.2563 35.7245 91.2848 35.7245C91.3582 35.7245 91.3949 35.7972 91.3949 35.9388V36.703C91.8843 36.0843 92.5083 35.777 93.275 35.777C94.0417 35.777 94.584 36.0479 94.8206 36.5817C94.9225 36.8041 94.9837 37.0548 95.0082 37.3338C95.0326 37.6128 95.0408 38.1829 95.0408 39.0523V41.0012C95.0408 41.2802 95.0653 41.442 95.1101 41.4905C95.155 41.539 95.3059 41.5633 95.5587 41.5633C95.8116 41.5633 95.938 41.5997 95.938 41.6725L95.9461 41.6765Z" fill="black"/>
<path d="M103.12 41.5026C103.12 41.5673 103.026 41.5956 102.842 41.5956H102.222C101.77 41.5875 101.297 41.6886 100.799 41.907C100.742 41.9232 100.713 41.9312 100.701 41.9312C100.62 41.9312 100.571 41.8504 100.563 41.6886C100.563 41.6078 100.55 41.4945 100.522 41.353C100.155 41.7372 99.6654 41.9312 99.0577 41.9312C98.2462 41.9312 97.5774 41.6401 97.0554 41.0578C96.5293 40.4756 96.2683 39.7356 96.2683 38.842C96.2683 37.9484 96.5375 37.1922 97.0717 36.6342C97.6059 36.0762 98.3114 35.7932 99.1842 35.7932C99.7551 35.7932 100.22 35.9994 100.579 36.4118V34.5316C100.579 33.727 100.542 33.2498 100.469 33.1002C100.395 32.9506 100.151 32.8819 99.7347 32.894C99.4941 32.894 99.3758 32.8616 99.3758 32.801C99.3758 32.7403 99.4329 32.708 99.543 32.708C100.387 32.708 101.199 32.5867 101.97 32.3441C102.08 32.3077 102.161 32.2915 102.206 32.2915C102.308 32.2915 102.361 32.4007 102.361 32.615V40.9851C102.361 41.1387 102.385 41.2398 102.43 41.2924C102.496 41.3732 102.655 41.4096 102.916 41.4015C103.054 41.3935 103.124 41.4299 103.124 41.5107L103.12 41.5026ZM100.579 40.2936V37.3661C100.579 36.9618 100.51 36.6625 100.371 36.4644C100.196 36.2137 99.9508 36.0884 99.6328 36.0884C98.7437 36.0884 98.2992 37.0426 98.2992 38.9512C98.2992 39.8003 98.4134 40.4594 98.6377 40.9244C98.8661 41.3894 99.1801 41.6239 99.5879 41.6239C99.8285 41.6239 100.053 41.5188 100.261 41.3085C100.469 41.0983 100.575 40.7586 100.575 40.2936H100.579Z" fill="black"/>
<path d="M109.848 38.9107C109.848 39.8691 109.461 40.6454 108.686 41.2358C108.079 41.7008 107.41 41.9353 106.684 41.9353C105.819 41.9353 105.069 41.632 104.437 41.0296C103.805 40.423 103.491 39.7114 103.491 38.8865C103.491 38.0616 103.805 37.2933 104.437 36.6909C105.069 36.0884 105.832 35.7851 106.725 35.7851C107.618 35.7851 108.315 36.0924 108.927 36.707C109.539 37.3216 109.844 38.0576 109.844 38.9148L109.848 38.9107ZM107.76 38.9229C107.76 37.8109 107.683 37.0507 107.528 36.6383C107.353 36.1814 107.075 35.9549 106.692 35.9549C106.333 35.9549 106.056 36.1935 105.856 36.6747C105.656 37.1559 105.554 37.815 105.554 38.656C105.554 39.8286 105.672 40.6616 105.913 41.1549C106.105 41.5471 106.374 41.7453 106.725 41.7453C107.157 41.7453 107.438 41.4946 107.577 40.9932C107.703 40.5201 107.769 39.8286 107.769 38.9229H107.76Z" fill="black"/>
<path d="M118.967 36.0237C118.967 36.0884 118.857 36.1248 118.637 36.1329C118.453 36.1409 118.331 36.1692 118.27 36.2218C118.209 36.2703 118.139 36.3957 118.058 36.5938C117.891 36.9901 117.585 37.8028 117.14 39.0321C116.696 40.2613 116.378 41.1711 116.194 41.7655C116.149 41.9272 116.088 42.0081 116.015 42.0081C115.958 42.0081 115.913 41.9636 115.876 41.8746C115.819 41.7412 115.733 41.535 115.615 41.256C115.529 41.07 115.252 40.3745 114.775 39.1776C114.71 39.0078 114.583 38.6843 114.391 38.2112C114.273 38.5347 114.065 39.0806 113.772 39.8488C113.58 40.3705 113.352 41.0012 113.095 41.7412C113.029 41.9232 112.96 42.0121 112.887 42.0121C112.842 42.0121 112.789 41.9393 112.736 41.7978C112.715 41.7614 112.548 41.3166 112.226 40.4635C111.712 39.1089 111.194 37.8392 110.68 36.6545C110.587 36.4482 110.517 36.3189 110.472 36.2622C110.399 36.1814 110.273 36.1409 110.101 36.1409C109.824 36.149 109.685 36.1167 109.685 36.0479C109.685 35.9792 109.742 35.9388 109.853 35.9388H110.003C110.158 35.9388 110.338 35.9469 110.542 35.959C110.746 35.9711 110.892 35.9792 110.982 35.9792C111.745 35.9792 112.287 35.9711 112.597 35.9509C112.752 35.9428 112.911 35.9388 113.066 35.9388C113.241 35.9388 113.327 35.9671 113.327 36.0196C113.327 36.0722 113.193 36.1045 112.919 36.1126C112.646 36.1207 112.511 36.1935 112.511 36.3269C112.511 36.4159 112.724 37.0224 113.148 38.1384C113.331 38.6237 113.494 39.0806 113.633 39.5092C113.727 39.303 113.869 38.9391 114.061 38.4215L114.697 36.7151C114.889 36.1976 115.032 35.9347 115.126 35.9347C115.199 35.9347 115.346 36.1976 115.566 36.7273C115.648 36.9335 115.807 37.3136 116.035 37.8675L116.492 38.9148C116.528 38.9876 116.606 39.1574 116.728 39.4243C117.43 37.629 117.78 36.5938 117.78 36.3229C117.78 36.2056 117.695 36.1369 117.519 36.1207H117.12C116.965 36.1207 116.883 36.0884 116.883 36.0196C116.883 35.963 116.932 35.9307 117.034 35.9307H118.845C118.926 35.9307 118.971 35.963 118.971 36.0237H118.967Z" fill="black"/>
<path d="M125.268 40.9002C125.268 40.9972 125.178 41.1266 125.003 41.2883C124.546 41.7089 123.922 41.9191 123.123 41.9191C122.389 41.9191 121.907 41.7453 121.675 41.3975C121.581 41.2641 121.528 41.1387 121.516 41.0215C121.504 40.9042 121.496 40.605 121.496 40.1198V39.4768C121.512 39.307 121.524 39.1291 121.524 38.9391L121.496 38.656V36.4806C121.496 36.3189 121.471 36.2259 121.426 36.1976C121.381 36.1693 121.243 36.1571 121.01 36.1571C120.733 36.1571 120.594 36.1207 120.594 36.0479C120.594 35.9954 120.643 35.959 120.745 35.9388C121.61 35.9105 122.356 35.4536 122.984 34.568C123.066 34.4427 123.131 34.382 123.176 34.382C123.233 34.382 123.257 34.4427 123.257 34.568C123.249 35.3363 123.282 35.7609 123.355 35.8296C123.429 35.9024 123.653 35.9388 124.032 35.9388C124.411 35.9388 124.693 35.9226 124.848 35.8862C124.868 35.8781 124.885 35.8741 124.905 35.8741C124.942 35.8741 124.962 35.9024 124.962 35.959C124.962 36.0924 124.901 36.1571 124.783 36.1571C124.407 36.1652 123.991 36.1733 123.535 36.1733H123.343V36.4523C123.343 38.842 123.359 40.2411 123.4 40.6495C123.486 41.167 123.747 41.4258 124.187 41.4258C124.383 41.4258 124.636 41.2924 124.946 41.0215C125.097 40.8961 125.19 40.8355 125.227 40.8355C125.256 40.8355 125.268 40.8597 125.268 40.9042V40.9002Z" fill="black"/>
<path d="M131.544 38.9107C131.544 39.8691 131.157 40.6454 130.382 41.2358C129.774 41.7008 129.105 41.9353 128.379 41.9353C127.515 41.9353 126.765 41.632 126.132 41.0296C125.5 40.423 125.186 39.7114 125.186 38.8865C125.186 38.0616 125.5 37.2933 126.132 36.6909C126.765 36.0884 127.527 35.7851 128.42 35.7851C129.313 35.7851 130.011 36.0924 130.622 36.707C131.234 37.3216 131.54 38.0576 131.54 38.9148L131.544 38.9107ZM129.456 38.9229C129.456 37.8109 129.379 37.0507 129.224 36.6383C129.048 36.1814 128.771 35.9549 128.388 35.9549C128.029 35.9549 127.751 36.1935 127.552 36.6747C127.352 37.1559 127.25 37.815 127.25 38.656C127.25 39.8286 127.368 40.6616 127.609 41.1549C127.8 41.5471 128.07 41.7453 128.42 41.7453C128.848 41.7453 129.134 41.4946 129.273 40.9932C129.399 40.5201 129.464 39.8286 129.464 38.9229H129.456Z" fill="black"/>
<path d="M138.742 40.9002C138.742 40.9972 138.652 41.1266 138.477 41.2883C138.02 41.7089 137.396 41.9191 136.597 41.9191C135.863 41.9191 135.382 41.7453 135.149 41.3975C135.055 41.2641 135.002 41.1387 134.99 41.0215C134.978 40.9042 134.97 40.605 134.97 40.1198V39.4768C134.986 39.307 134.998 39.1291 134.998 38.9391L134.97 38.656V36.4806C134.97 36.3189 134.945 36.2259 134.9 36.1976C134.856 36.1693 134.717 36.1571 134.484 36.1571C134.207 36.1571 134.068 36.1207 134.068 36.0479C134.068 35.9954 134.117 35.959 134.219 35.9388C135.084 35.9105 135.83 35.4536 136.458 34.568C136.54 34.4427 136.605 34.382 136.65 34.382C136.707 34.382 136.731 34.4427 136.731 34.568C136.723 35.3363 136.756 35.7609 136.829 35.8296C136.903 35.9024 137.127 35.9388 137.506 35.9388C137.886 35.9388 138.167 35.9226 138.322 35.8862C138.342 35.8781 138.359 35.8741 138.379 35.8741C138.416 35.8741 138.436 35.9024 138.436 35.959C138.436 36.0924 138.375 36.1571 138.257 36.1571C137.882 36.1652 137.466 36.1733 137.009 36.1733H136.817V36.4523C136.817 38.842 136.833 40.2411 136.874 40.6495C136.96 41.167 137.221 41.4258 137.661 41.4258C137.857 41.4258 138.11 41.2924 138.42 41.0215C138.571 40.8961 138.665 40.8355 138.701 40.8355C138.73 40.8355 138.742 40.8597 138.742 40.9042V40.9002Z" fill="black"/>
<path d="M145.691 41.717C145.691 41.7695 145.65 41.7978 145.569 41.7978C145.577 41.7978 145.487 41.7978 145.291 41.7978H144.464C143.672 41.7978 143.183 41.7857 143 41.7574H142.779L142.449 41.7978C142.331 41.8059 142.27 41.7736 142.27 41.6967C142.27 41.6401 142.294 41.6118 142.339 41.6118H142.657C142.861 41.6199 142.975 41.5673 143.004 41.4501C143.02 41.3773 143.032 40.9325 143.032 40.1076V38.1061C143.032 37.2731 142.991 36.7798 142.91 36.6302C142.792 36.3957 142.563 36.2825 142.225 36.2825C141.87 36.2825 141.593 36.4402 141.401 36.7556C141.311 36.9092 141.262 37.2367 141.262 37.7422V41.4258C141.254 41.5593 141.442 41.628 141.829 41.628C141.911 41.628 141.951 41.6563 141.951 41.7089C141.951 41.7736 141.89 41.8019 141.772 41.8019H141.662C141.589 41.7736 141.478 41.7614 141.332 41.7614H140.724L139.949 41.7736L139.134 41.8019H138.718C138.579 41.8019 138.51 41.7736 138.51 41.721C138.51 41.6927 138.518 41.6765 138.538 41.6684C138.558 41.6603 138.599 41.6563 138.665 41.6563C139.015 41.6563 139.223 41.6442 139.284 41.6159C139.346 41.5876 139.39 41.4865 139.407 41.3086C139.415 41.1994 139.419 40.6656 139.419 39.6952V34.7662C139.419 33.7998 139.399 33.2417 139.358 33.0921C139.317 32.9425 139.121 32.8697 138.771 32.8697C138.501 32.8697 138.371 32.8414 138.371 32.7889C138.371 32.7363 138.526 32.6999 138.84 32.6797C139.545 32.6352 140.21 32.518 140.834 32.332C140.952 32.2956 141.038 32.2794 141.095 32.2794C141.168 32.2794 141.205 32.5301 141.205 33.0315V36.7394C141.474 36.3714 141.731 36.1207 141.988 35.9873C142.241 35.8539 142.584 35.7851 143.016 35.7851C143.929 35.7851 144.5 36.145 144.729 36.8607C144.81 37.0952 144.851 37.4713 144.851 37.9888V41.1185C144.851 41.353 144.892 41.4946 144.969 41.5471C145.047 41.5997 145.243 41.628 145.557 41.628C145.65 41.628 145.695 41.6603 145.695 41.721L145.691 41.717Z" fill="black"/>
<path d="M151.633 40.1198C151.633 40.3179 151.515 40.5767 151.274 40.9002C150.756 41.5916 150.087 41.9353 149.255 41.9353C148.326 41.9353 147.559 41.6482 146.963 41.074C146.364 40.4999 146.066 39.768 146.066 38.8703C146.066 37.9727 146.356 37.261 146.935 36.6747C147.514 36.0884 148.24 35.7932 149.105 35.7932C149.696 35.7932 150.197 35.9185 150.609 36.1692C151.07 36.4482 151.368 36.8445 151.507 37.3661C151.543 37.5279 151.572 37.722 151.588 37.9443C151.376 37.9686 150.524 37.9848 149.031 37.9969C148.799 37.9969 148.509 38.005 148.162 38.0252C148.134 38.3447 148.122 38.6196 148.122 38.842C148.122 39.8852 148.346 40.6252 148.799 41.0619C149.068 41.3207 149.394 41.4501 149.781 41.4501C150.104 41.4501 150.414 41.3409 150.715 41.1266C151.013 40.9123 151.241 40.6333 151.401 40.2936C151.474 40.1238 151.535 40.0389 151.58 40.0389C151.617 40.0389 151.637 40.0672 151.637 40.1198H151.633ZM149.892 37.7705C149.9 37.0871 149.851 36.61 149.741 36.3431C149.631 36.0762 149.435 35.9428 149.162 35.9428C148.599 35.9428 148.277 36.5534 148.195 37.7705H149.896H149.892Z" fill="black"/>
<path d="M162.22 38.8177L162.208 39.0482C162.208 39.0927 162.183 39.3757 162.138 39.8933C162.102 40.2855 162.081 40.5928 162.081 40.8071C162.081 41.074 162.085 41.3005 162.093 41.4784C162.102 41.5431 162.106 41.6159 162.106 41.7048C162.106 41.8019 162.081 41.8544 162.036 41.8544C161.991 41.8544 161.938 41.8099 161.885 41.721C161.681 41.3975 161.465 41.1872 161.237 41.0902C160.548 41.6644 159.806 41.9515 159.01 41.9515C157.803 41.9515 156.739 41.5148 155.817 40.6373C154.842 39.7073 154.353 38.5347 154.353 37.1195C154.353 35.7042 154.794 34.6044 155.674 33.6865C156.555 32.7686 157.652 32.3077 158.97 32.3077C159.577 32.3077 160.12 32.4411 160.601 32.712C160.878 32.8657 161.078 32.9425 161.208 32.9425C161.4 32.9425 161.584 32.8576 161.747 32.6878C161.865 32.5624 161.938 32.5018 161.967 32.5018C162.004 32.5018 162.024 32.5341 162.024 32.5948C162.024 32.6231 162.02 32.6635 162.012 32.7161C161.955 33.0193 161.93 33.3954 161.93 33.8442C161.93 33.8887 161.934 34.0706 161.942 34.3941V35.3201C161.942 35.4818 161.898 35.5627 161.804 35.5627C161.73 35.5627 161.657 35.3888 161.584 35.0371C161.253 33.4237 160.491 32.619 159.304 32.619C158.366 32.619 157.681 33.2094 157.261 34.3941C156.967 35.1988 156.82 36.1652 156.82 37.2933C156.82 38.9673 157.171 40.1966 157.872 40.9729C158.24 41.3854 158.725 41.5916 159.324 41.5916C160.625 41.5916 161.473 40.7505 161.881 39.0644C161.947 38.7854 162.02 38.6479 162.102 38.6479C162.195 38.6479 162.236 38.7045 162.224 38.8218L162.22 38.8177Z" fill="black"/>
<path d="M170.372 41.3288C170.372 41.4016 170.294 41.442 170.135 41.4501C169.295 41.4784 168.716 41.5188 168.394 41.5795C168.072 41.6361 167.795 41.7412 167.566 41.8949C167.509 41.9313 167.46 41.9474 167.415 41.9474C167.379 41.9474 167.358 41.911 167.358 41.8383V41.26C167.358 41.1792 167.354 41.1064 167.346 41.0457C166.771 41.6442 166.143 41.9474 165.466 41.9474C164.862 41.9474 164.385 41.7574 164.039 41.3813C163.818 41.1468 163.708 40.7182 163.708 40.0874V36.5857C163.708 36.3876 163.68 36.2663 163.619 36.2218C163.561 36.1773 163.394 36.149 163.121 36.1409C162.885 36.1329 162.766 36.0965 162.766 36.0318C162.766 35.959 162.832 35.9226 162.958 35.9226H163.109C163.247 35.9226 163.455 35.9307 163.737 35.9428C164.018 35.9549 164.21 35.963 164.312 35.963C164.328 35.963 164.426 35.9549 164.597 35.9428C164.769 35.9307 165.017 35.9226 165.352 35.9226H165.613V37.3783C165.613 38.0697 165.605 38.5792 165.584 38.9027C165.564 39.2261 165.556 39.3677 165.556 39.3232C165.556 40.2694 165.617 40.8557 165.743 41.0902C165.866 41.3247 166.061 41.442 166.331 41.442C166.636 41.442 166.922 41.2762 167.187 40.9446C167.269 40.8476 167.317 40.7465 167.334 40.6414C167.346 40.5403 167.354 40.2855 167.354 39.8812V37.5643C167.354 36.9092 167.346 36.5129 167.326 36.3795C167.309 36.2097 167.195 36.1248 166.987 36.1248H166.604C166.477 36.1248 166.412 36.0884 166.412 36.0156C166.412 35.963 166.661 35.9347 167.154 35.9347C167.587 35.9347 168.268 35.9307 169.202 35.9226V40.2896C169.202 40.7101 169.21 40.9608 169.23 41.0336C169.246 41.1104 169.316 41.163 169.438 41.1873C169.52 41.2034 169.768 41.2156 170.184 41.2156C170.303 41.2156 170.364 41.2519 170.364 41.3247L170.372 41.3288Z" fill="black"/>
<path d="M174.116 41.6725C174.116 41.7412 173.94 41.7736 173.594 41.7736C173.512 41.7736 173.255 41.7655 172.823 41.7453C172.603 41.7372 172.387 41.7331 172.174 41.7331C171.962 41.7331 171.595 41.7412 171.045 41.7614L170.633 41.7736C170.429 41.7817 170.331 41.7533 170.331 41.6806C170.331 41.6078 170.437 41.5795 170.649 41.5876C170.971 41.5956 171.159 41.5673 171.208 41.4946C171.257 41.4218 171.285 41.1549 171.285 40.6899V33.6218C171.285 33.3186 171.253 33.1366 171.188 33.08C171.122 33.0234 170.931 32.991 170.613 32.991C170.38 32.991 170.262 32.9587 170.262 32.89C170.262 32.8131 170.38 32.7727 170.621 32.7606C171.648 32.7242 172.488 32.5746 173.137 32.3036V40.3624C173.137 40.9729 173.153 41.3288 173.186 41.4299C173.218 41.531 173.333 41.5795 173.524 41.5714H173.94C174.059 41.5714 174.12 41.6037 174.12 41.6725H174.116Z" fill="black"/>
<path d="M178.871 40.9002C178.871 40.9972 178.781 41.1266 178.606 41.2883C178.149 41.7089 177.525 41.9191 176.726 41.9191C175.992 41.9191 175.51 41.7453 175.278 41.3975C175.184 41.2641 175.131 41.1387 175.119 41.0215C175.107 40.9042 175.098 40.605 175.098 40.1198V39.4768C175.115 39.307 175.127 39.1291 175.127 38.9391L175.098 38.656V36.4806C175.098 36.3189 175.074 36.2259 175.029 36.1976C174.984 36.1693 174.846 36.1571 174.613 36.1571C174.336 36.1571 174.197 36.1207 174.197 36.0479C174.197 35.9954 174.246 35.959 174.348 35.9388C175.213 35.9105 175.959 35.4536 176.587 34.568C176.669 34.4427 176.734 34.382 176.779 34.382C176.836 34.382 176.86 34.4427 176.86 34.568C176.852 35.3363 176.885 35.7609 176.958 35.8296C177.032 35.9024 177.256 35.9388 177.635 35.9388C178.014 35.9388 178.296 35.9226 178.451 35.8862C178.471 35.8781 178.487 35.8741 178.508 35.8741C178.545 35.8741 178.565 35.9024 178.565 35.959C178.565 36.0924 178.504 36.1571 178.385 36.1571C178.01 36.1652 177.594 36.1733 177.138 36.1733H176.946V36.4523C176.946 38.842 176.962 40.2411 177.003 40.6495C177.089 41.167 177.35 41.4258 177.79 41.4258C177.986 41.4258 178.239 41.2924 178.549 41.0215C178.699 40.8961 178.793 40.8355 178.83 40.8355C178.859 40.8355 178.871 40.8597 178.871 40.9042V40.9002Z" fill="black"/>
<path d="M186.138 41.3288C186.138 41.4016 186.061 41.442 185.901 41.4501C185.061 41.4784 184.482 41.5188 184.16 41.5795C183.838 41.6361 183.561 41.7412 183.332 41.8949C183.275 41.9313 183.226 41.9474 183.181 41.9474C183.145 41.9474 183.124 41.911 183.124 41.8383V41.26C183.124 41.1792 183.12 41.1064 183.112 41.0457C182.537 41.6442 181.909 41.9474 181.232 41.9474C180.628 41.9474 180.151 41.7574 179.805 41.3813C179.584 41.1468 179.474 40.7182 179.474 40.0874V36.5857C179.474 36.3876 179.446 36.2663 179.385 36.2218C179.328 36.1773 179.16 36.149 178.887 36.1409C178.651 36.1329 178.532 36.0965 178.532 36.0318C178.532 35.959 178.598 35.9226 178.724 35.9226H178.875C179.014 35.9226 179.221 35.9307 179.503 35.9428C179.784 35.9549 179.976 35.963 180.078 35.963C180.094 35.963 180.192 35.9549 180.363 35.9428C180.535 35.9307 180.783 35.9226 181.118 35.9226H181.379V37.3783C181.379 38.0697 181.371 38.5792 181.35 38.9027C181.33 39.2261 181.322 39.3677 181.322 39.3232C181.322 40.2694 181.383 40.8557 181.509 41.0902C181.632 41.3247 181.827 41.442 182.097 41.442C182.402 41.442 182.688 41.2762 182.953 40.9446C183.035 40.8476 183.083 40.7465 183.1 40.6414C183.112 40.5403 183.12 40.2855 183.12 39.8812V37.5643C183.12 36.9092 183.112 36.5129 183.092 36.3795C183.075 36.2097 182.961 36.1248 182.753 36.1248H182.37C182.243 36.1248 182.178 36.0884 182.178 36.0156C182.178 35.963 182.427 35.9347 182.92 35.9347C183.353 35.9347 184.034 35.9307 184.968 35.9226V40.2896C184.968 40.7101 184.976 40.9608 184.996 41.0336C185.012 41.1104 185.082 41.163 185.204 41.1873C185.286 41.2034 185.534 41.2156 185.95 41.2156C186.069 41.2156 186.13 41.2519 186.13 41.3247L186.138 41.3288Z" fill="black"/>
<path d="M191.403 36.7879C191.403 37.0467 191.325 37.261 191.166 37.4268C191.011 37.5926 190.807 37.6775 190.559 37.6775C190.061 37.6775 189.812 37.4551 189.812 37.0063C189.812 36.8526 189.874 36.703 189.992 36.5493C190.02 36.5129 190.033 36.4806 190.033 36.4563C190.033 36.3755 189.971 36.335 189.857 36.335C189.547 36.335 189.311 36.5736 189.148 37.0467C189.058 37.3136 189.013 37.9727 189.013 39.0159V41.1711C189.013 41.4137 189.135 41.5431 189.388 41.5593C189.535 41.5673 189.71 41.5714 189.914 41.5714C190.016 41.5795 190.065 41.6118 190.065 41.6644C190.065 41.7372 190.024 41.7736 189.943 41.7736H188.463C188.499 41.7736 188.291 41.7736 187.843 41.7736H186.322C186.22 41.7736 186.171 41.7453 186.171 41.6846C186.171 41.6239 186.236 41.5956 186.362 41.5956C186.742 41.5876 186.97 41.5471 187.047 41.4824C187.125 41.4137 187.166 41.2156 187.166 40.888L187.153 37.2691C187.153 36.9658 187.109 36.7556 187.023 36.6383C186.937 36.521 186.742 36.4523 186.436 36.424C186.195 36.4078 186.061 36.3957 186.028 36.3876C185.995 36.3795 185.979 36.3512 185.979 36.2986C185.979 36.2461 186.016 36.2218 186.089 36.2218H186.599C187.308 36.2218 188.071 36.0803 188.891 35.7932C188.936 35.9711 188.96 36.1773 188.96 36.4119V36.9779C189.135 36.5453 189.327 36.238 189.535 36.0601C189.743 35.8822 190.012 35.7932 190.343 35.7932C190.657 35.7932 190.909 35.8862 191.109 36.0762C191.309 36.2622 191.407 36.5008 191.407 36.7879H191.403Z" fill="black"/>
<path d="M197.883 41.0498C197.883 41.1225 197.81 41.2236 197.663 41.349C197.267 41.7048 196.778 41.8827 196.199 41.8827C195.819 41.8827 195.546 41.8059 195.375 41.6523C195.204 41.4986 195.094 41.2236 195.036 40.8233C194.621 41.5592 194.054 41.9232 193.336 41.9232C192.94 41.9232 192.618 41.8019 192.378 41.5592C192.137 41.3166 192.01 41.0053 192.01 40.6171C192.01 39.489 193.006 38.8218 194.996 38.6156V38.3325C194.996 37.4389 194.963 36.8849 194.898 36.6787L194.886 36.61C194.755 36.1612 194.429 35.9388 193.903 35.9388C193.597 35.9388 193.356 36.0237 193.169 36.1935C192.985 36.3633 192.891 36.5291 192.891 36.6909C192.891 36.7798 193.001 36.8364 193.222 36.8526C193.552 36.8809 193.719 37.075 193.719 37.4429C193.719 37.6411 193.654 37.8028 193.519 37.9322C193.385 38.0616 193.214 38.1263 193.001 38.1263C192.732 38.1263 192.516 38.0495 192.345 37.8918C192.174 37.7341 192.088 37.536 192.088 37.2933C192.088 36.9092 192.288 36.5574 192.683 36.2461C193.079 35.9307 193.601 35.777 194.245 35.777C195.204 35.777 195.872 35.9428 196.248 36.2744C196.554 36.5534 196.704 37.0346 196.704 37.726V40.0227C196.704 40.4715 196.709 40.7303 196.717 40.8031C196.762 41.1792 196.896 41.3652 197.116 41.3652C197.271 41.3652 197.467 41.256 197.695 41.0417C197.74 40.9972 197.777 40.9729 197.806 40.9729C197.85 40.9729 197.875 40.9972 197.875 41.0417L197.883 41.0498ZM194.996 39.4485V38.7894C194.103 38.9593 193.654 39.4526 193.654 40.2653C193.654 40.8921 193.874 41.2075 194.319 41.2075C194.567 41.2075 194.743 41.074 194.845 40.8031C194.947 40.5322 194.996 40.0834 194.996 39.4445V39.4485Z" fill="black"/>
<path d="M201.545 41.6725C201.545 41.7412 201.37 41.7736 201.023 41.7736C200.942 41.7736 200.685 41.7655 200.252 41.7453C200.032 41.7372 199.816 41.7331 199.604 41.7331C199.392 41.7331 199.025 41.7412 198.474 41.7614L198.062 41.7736C197.859 41.7817 197.761 41.7533 197.761 41.6806C197.761 41.6078 197.867 41.5795 198.079 41.5876C198.401 41.5956 198.589 41.5673 198.637 41.4946C198.686 41.4218 198.715 41.1549 198.715 40.6899V33.6218C198.715 33.3186 198.682 33.1366 198.617 33.08C198.552 33.0234 198.36 32.991 198.042 32.991C197.81 32.991 197.691 32.9587 197.691 32.89C197.691 32.8131 197.81 32.7727 198.05 32.7606C199.078 32.7242 199.918 32.5746 200.566 32.3036V40.3624C200.566 40.9729 200.583 41.3288 200.615 41.4299C200.648 41.531 200.762 41.5795 200.954 41.5714H201.37C201.488 41.5714 201.549 41.6037 201.549 41.6725H201.545Z" fill="black"/>
<path d="M213.07 41.624C213.07 41.6967 213.037 41.7372 212.968 41.7533C212.899 41.7655 212.723 41.7736 212.438 41.7736C212.364 41.7736 212.156 41.7695 211.814 41.7614C211.133 41.7453 210.664 41.7331 210.403 41.7331C210.097 41.7331 209.832 41.7372 209.604 41.7453C209.143 41.7614 208.829 41.7736 208.666 41.7736C208.417 41.7736 208.29 41.7291 208.29 41.6401C208.29 41.5512 208.551 41.5026 209.077 41.4905C209.208 41.4905 209.302 41.4824 209.367 41.4622C209.514 41.446 209.587 41.3894 209.587 41.3005C209.587 41.256 209.53 41.0659 209.42 40.7384L209.13 39.865C209.073 39.6669 208.955 39.307 208.772 38.7773H207.446C207.059 38.7692 206.651 38.7733 206.215 38.7894C206.133 38.9674 205.974 39.3717 205.746 39.9985L205.44 40.8719C205.395 41.0053 205.37 41.1145 205.37 41.1953C205.37 41.349 205.472 41.446 205.676 41.4905C205.721 41.4986 205.95 41.5188 206.353 41.5431C206.484 41.5512 206.545 41.5916 206.545 41.6563C206.545 41.7331 206.463 41.7695 206.296 41.7695H203.837C203.707 41.7695 203.645 41.725 203.645 41.6361C203.645 41.5835 203.788 41.5471 204.074 41.5269C204.441 41.5107 204.677 41.442 204.779 41.3247C204.881 41.2075 205.048 40.8314 205.277 40.1966C205.452 39.7478 205.705 39.0846 206.035 38.2072L207.707 33.7351C207.789 33.5369 207.907 33.2296 208.054 32.8091C208.156 32.5058 208.233 32.3522 208.29 32.3522C208.347 32.3522 208.445 32.5584 208.596 32.9708C208.78 33.5005 209.591 35.587 211.027 39.2302C211.21 39.6952 211.394 40.1723 211.581 40.6535C211.736 41.0659 211.895 41.3166 212.05 41.4056C212.169 41.4784 212.454 41.5067 212.907 41.4986C213.017 41.4986 213.074 41.539 213.074 41.6199L213.07 41.624ZM208.674 38.4821C208.666 38.4538 208.633 38.3689 208.576 38.2274C208.205 37.1882 207.936 36.4604 207.772 36.0399C207.728 35.9226 207.666 35.7528 207.589 35.5263L207.495 35.2878C207.328 35.6719 207.128 36.2056 206.888 36.885C206.622 37.6451 206.427 38.1789 206.308 38.4821H208.67H208.674Z" fill="black"/>
<path d="M218.416 36.7879C218.416 37.0467 218.339 37.261 218.18 37.4268C218.025 37.5926 217.821 37.6775 217.572 37.6775C217.075 37.6775 216.826 37.4551 216.826 37.0063C216.826 36.8526 216.887 36.703 217.005 36.5493C217.034 36.5129 217.046 36.4806 217.046 36.4563C217.046 36.3755 216.985 36.335 216.871 36.335C216.561 36.335 216.324 36.5736 216.161 37.0467C216.071 37.3136 216.027 37.9727 216.027 39.0159V41.1711C216.027 41.4137 216.149 41.5431 216.402 41.5593C216.549 41.5673 216.724 41.5714 216.928 41.5714C217.03 41.5795 217.079 41.6118 217.079 41.6644C217.079 41.7372 217.038 41.7736 216.956 41.7736H215.476C215.513 41.7736 215.305 41.7736 214.856 41.7736H213.335C213.233 41.7736 213.184 41.7453 213.184 41.6846C213.184 41.6239 213.249 41.5956 213.376 41.5956C213.755 41.5876 213.983 41.5471 214.061 41.4824C214.138 41.4137 214.179 41.2156 214.179 40.888L214.167 37.2691C214.167 36.9658 214.122 36.7556 214.036 36.6383C213.951 36.521 213.755 36.4523 213.449 36.424C213.209 36.4078 213.074 36.3957 213.041 36.3876C213.009 36.3795 212.992 36.3512 212.992 36.2986C212.992 36.2461 213.029 36.2218 213.103 36.2218H213.612C214.322 36.2218 215.085 36.0803 215.904 35.7932C215.949 35.9711 215.974 36.1773 215.974 36.4119V36.9779C216.149 36.5453 216.341 36.238 216.549 36.0601C216.757 35.8822 217.026 35.7932 217.356 35.7932C217.67 35.7932 217.923 35.8862 218.123 36.0762C218.323 36.2622 218.42 36.5008 218.42 36.7879H218.416Z" fill="black"/>
<path d="M223.269 40.9002C223.269 40.9972 223.18 41.1266 223.004 41.2883C222.548 41.7089 221.924 41.9191 221.124 41.9191C220.39 41.9191 219.909 41.7453 219.677 41.3975C219.583 41.2641 219.53 41.1387 219.517 41.0215C219.505 40.9042 219.497 40.605 219.497 40.1198V39.4768C219.513 39.307 219.526 39.1291 219.526 38.9391L219.497 38.656V36.4806C219.497 36.3189 219.473 36.2259 219.428 36.1976C219.383 36.1693 219.244 36.1571 219.012 36.1571C218.734 36.1571 218.596 36.1207 218.596 36.0479C218.596 35.9954 218.645 35.959 218.747 35.9388C219.611 35.9105 220.358 35.4536 220.986 34.568C221.067 34.4427 221.132 34.382 221.177 34.382C221.234 34.382 221.259 34.4427 221.259 34.568C221.251 35.3363 221.283 35.7609 221.357 35.8296C221.43 35.9024 221.654 35.9388 222.034 35.9388C222.413 35.9388 222.694 35.9226 222.849 35.8862C222.87 35.8781 222.886 35.8741 222.906 35.8741C222.943 35.8741 222.963 35.9024 222.963 35.959C222.963 36.0924 222.902 36.1571 222.784 36.1571C222.409 36.1652 221.993 36.1733 221.536 36.1733H221.344V36.4523C221.344 38.842 221.361 40.2411 221.402 40.6495C221.487 41.167 221.748 41.4258 222.189 41.4258C222.384 41.4258 222.637 41.2924 222.947 41.0215C223.098 40.8961 223.192 40.8355 223.229 40.8355C223.257 40.8355 223.269 40.8597 223.269 40.9042V40.9002Z" fill="black"/>
<path d="M227.564 39.9055C227.564 40.5039 227.376 40.9932 227.001 41.3611C226.626 41.7331 226.136 41.9191 225.541 41.9191C225.247 41.9191 224.897 41.8464 224.493 41.7048C224.162 41.5876 223.946 41.531 223.844 41.531C223.669 41.531 223.555 41.5957 223.502 41.725C223.445 41.8544 223.404 41.9191 223.379 41.9191C223.322 41.9191 223.298 41.8868 223.298 41.8261C223.298 41.7736 223.306 41.6887 223.318 41.5714C223.339 41.4016 223.351 41.1023 223.351 40.6778V40.0146C223.351 39.9176 223.375 39.865 223.42 39.865C223.473 39.865 223.518 39.9338 223.543 40.0672C223.624 40.5403 223.861 40.9366 224.244 41.256C224.627 41.5754 225.06 41.7331 225.537 41.7331C225.839 41.7331 226.083 41.6401 226.271 41.4582C226.458 41.2762 226.552 41.0336 226.552 40.7384C226.552 40.5039 226.467 40.3098 226.291 40.1481C226.161 40.0308 225.818 39.8852 225.255 39.7033C224.566 39.4809 224.065 39.21 223.755 38.8905C223.445 38.5711 223.29 38.1668 223.29 37.6734C223.29 37.1437 223.473 36.699 223.844 36.331C224.215 35.963 224.664 35.7811 225.198 35.7811C225.402 35.7811 225.753 35.8458 226.25 35.9711C226.324 35.9873 226.381 35.9994 226.418 35.9994C226.622 35.9994 226.772 35.8781 226.874 35.6355C226.891 35.591 226.915 35.5668 226.944 35.5668C227.009 35.5668 227.042 35.6193 227.042 35.7285L227.029 35.9833C227.021 36.0196 227.017 36.0803 227.017 36.1693C227.017 36.5372 227.042 36.9133 227.087 37.2974V37.3661C227.087 37.4389 227.058 37.4753 227.005 37.4753C226.96 37.4753 226.923 37.4349 226.895 37.354C226.626 36.4402 226.083 35.9833 225.264 35.9833C224.958 35.9833 224.709 36.0641 224.509 36.2259C224.309 36.3876 224.211 36.5938 224.211 36.8445C224.211 37.079 224.293 37.261 224.46 37.3944C224.627 37.5279 224.95 37.6815 225.427 37.8514C226.263 38.1384 226.83 38.4255 227.127 38.7126C227.421 38.9997 227.568 39.396 227.568 39.9095L227.564 39.9055Z" fill="black"/>
<path d="M23.8978 18.3616L23.857 19.0045C23.857 19.1299 23.7877 19.9264 23.6491 21.3902C23.5349 22.5022 23.4819 23.3594 23.4819 23.9659C23.4819 24.7221 23.4941 25.3528 23.5226 25.8583C23.5512 26.0362 23.5634 26.2505 23.5634 26.5012C23.5634 26.7802 23.4941 26.9177 23.3514 26.9177C23.2086 26.9177 23.0577 26.7923 22.8905 26.5376C22.2747 25.6278 21.6182 25.0374 20.9167 24.7584C18.8165 26.3718 16.5613 27.1805 14.1552 27.1805C10.4849 27.1805 7.25499 25.9432 4.45332 23.4726C1.48444 20.8443 0 17.5408 0 13.5539C0 9.56696 1.33763 6.46558 4.0088 3.88178C6.68405 1.29393 10.024 0 14.0288 0C15.8762 0 17.5278 0.38009 18.9837 1.13623C19.8238 1.56484 20.4396 1.77915 20.8311 1.77915C21.4183 1.77915 21.9648 1.54058 22.4705 1.0594C22.8334 0.707615 23.0577 0.529701 23.1434 0.529701C23.2535 0.529701 23.3106 0.618658 23.3106 0.796573C23.3106 0.873399 23.2943 0.986618 23.2698 1.13623C23.1026 1.99345 23.017 3.05285 23.017 4.31443C23.017 4.43978 23.0292 4.95735 23.0577 5.86714V8.47925C23.0577 8.93213 22.9191 9.16261 22.6377 9.16261C22.4134 9.16261 22.1891 8.6693 21.9648 7.68672C20.9575 3.14586 18.6452 0.873399 15.0361 0.873399C12.1814 0.873399 10.1097 2.53933 8.82099 5.87118C7.9238 8.14364 7.47521 10.869 7.47521 14.0472C7.47521 18.766 8.5396 22.2232 10.6684 24.4188C11.7899 25.5793 13.258 26.1615 15.0768 26.1615C19.0245 26.1615 21.6141 23.788 22.8457 19.045C23.0414 18.2646 23.2657 17.8723 23.5186 17.8723C23.8 17.8723 23.9223 18.0381 23.8978 18.3656V18.3616Z" fill="#E20505"/>
<path d="M48.6725 25.4378C48.6725 25.6399 48.4359 25.7532 47.9588 25.7774C45.41 25.8542 43.6482 25.9715 42.6654 26.1373C41.6866 26.3031 40.8465 26.5983 40.1451 27.0269C39.9779 27.128 39.8229 27.1765 39.6843 27.1765C39.5742 27.1765 39.5171 27.0754 39.5171 26.8732V25.2437C39.5171 25.0172 39.5008 24.8151 39.4763 24.6371C37.7268 26.3273 35.8223 27.1724 33.7669 27.1724C31.9318 27.1724 30.4881 26.6427 29.4319 25.5793C28.7671 24.9202 28.4327 23.7071 28.4327 21.9361V12.0699C28.4327 11.5119 28.343 11.1722 28.1636 11.0469C27.9841 10.9215 27.4784 10.8447 26.6547 10.8205C25.9369 10.7962 25.578 10.6951 25.578 10.5172C25.578 10.315 25.7738 10.2139 26.1653 10.2139H26.6261C27.0462 10.2139 27.6823 10.2341 28.5388 10.2705C29.3911 10.3069 29.9743 10.3271 30.2801 10.3271C30.3372 10.3271 30.6227 10.3069 31.1406 10.2705C31.6585 10.2341 32.4211 10.2139 33.4284 10.2139H34.2277V14.3221C34.2277 16.2752 34.1992 17.7066 34.1421 18.6204C34.085 19.5342 34.0565 19.9265 34.0565 19.8011C34.0565 22.4658 34.2441 24.1236 34.6233 24.7827C35.0026 25.4418 35.5939 25.7734 36.4095 25.7734C37.3353 25.7734 38.1998 25.3043 39.0155 24.3703C39.2683 24.0913 39.4151 23.8082 39.4559 23.5171C39.4967 23.226 39.5171 22.5103 39.5171 21.374V14.8478C39.5171 12.9999 39.4885 11.8879 39.4355 11.5079C39.3825 11.0267 39.0359 10.7881 38.3997 10.7881H37.2415C36.8541 10.7881 36.6624 10.687 36.6624 10.4848C36.6624 10.3352 37.4128 10.2584 38.9176 10.2584C40.2267 10.2584 42.3024 10.2463 45.1449 10.222V22.5264C45.1449 23.7112 45.1734 24.4148 45.2305 24.6291C45.2876 24.8434 45.4956 24.9889 45.8586 25.0658C46.1114 25.1143 46.8659 25.1426 48.126 25.1426C48.489 25.1426 48.6725 25.2437 48.6725 25.4459V25.4378Z" fill="#E20505"/>
<path d="M60.0545 26.4042C60.0545 26.5942 59.5244 26.6872 58.464 26.6872C58.2112 26.6872 57.4323 26.6629 56.1191 26.6104C55.4503 26.5861 54.7937 26.574 54.1535 26.574C53.5132 26.574 52.3958 26.5982 50.7237 26.6508L49.4677 26.6872C48.8519 26.7115 48.546 26.6225 48.546 26.4244C48.546 26.2262 48.8682 26.1332 49.5125 26.1575C50.4913 26.1818 51.0582 26.0928 51.2131 25.8947C51.3681 25.6925 51.4456 24.9364 51.4456 23.6263V3.7079C51.4456 2.85068 51.3477 2.3412 51.1479 2.17946C50.948 2.01367 50.3649 1.9328 49.4024 1.9328C48.6928 1.9328 48.338 1.8398 48.338 1.64975C48.338 1.43545 48.701 1.31414 49.4228 1.28584C52.5426 1.18475 55.0914 0.756137 57.0734 0V22.7124C57.0734 24.4309 57.1223 25.4337 57.2202 25.7208C57.3181 26.0119 57.6606 26.1454 58.2479 26.1171H59.508C59.871 26.1171 60.0545 26.2101 60.0545 26.4001V26.4042Z" fill="#E20505"/>
<path d="M74.5033 24.2287C74.5033 24.5077 74.2342 24.8717 73.6999 25.3286C72.3174 26.5133 70.413 27.1077 67.9865 27.1077C65.7598 27.1077 64.2917 26.6144 63.5862 25.6318C63.3048 25.2518 63.1417 24.9 63.1009 24.5724C63.0601 24.2449 63.0397 23.3998 63.0397 22.0372V20.2216C63.0968 19.7445 63.1253 19.239 63.1253 18.7093L63.0397 17.9128V11.7788C63.0397 11.3259 62.9704 11.059 62.8317 10.9822C62.6931 10.9054 62.273 10.869 61.5716 10.869C60.7315 10.869 60.3114 10.7679 60.3114 10.5657C60.3114 10.4161 60.4664 10.315 60.7723 10.2624C63.4027 10.1856 65.6701 8.89978 67.5746 6.40089C67.8274 6.0491 68.0232 5.87119 68.1618 5.87119C68.329 5.87119 68.4147 6.0491 68.4147 6.40089C68.3861 8.57225 68.484 9.757 68.7083 9.95918C68.9326 10.1614 69.6177 10.2624 70.7678 10.2624C71.9178 10.2624 72.7701 10.2139 73.2473 10.1128C73.3043 10.0886 73.3574 10.0764 73.4145 10.0764C73.5246 10.0764 73.5817 10.1573 73.5817 10.315C73.5817 10.687 73.4022 10.869 73.0393 10.869C71.9015 10.8973 70.6373 10.9094 69.2507 10.9094H68.6675V11.7019C68.6675 18.4303 68.7246 22.3728 68.8347 23.5292C69.0916 24.9849 69.8869 25.7127 71.2204 25.7127C71.8158 25.7127 72.5825 25.3326 73.5246 24.5765C73.9772 24.2247 74.2627 24.0468 74.3769 24.0468C74.4625 24.0468 74.5033 24.1115 74.5033 24.2368V24.2287Z" fill="#E20505"/>
<path d="M96.5945 25.4378C96.5945 25.6399 96.358 25.7532 95.8809 25.7774C93.332 25.8542 91.5703 25.9715 90.5875 26.1373C89.6087 26.3031 88.7686 26.5983 88.0672 27.0269C87.9 27.128 87.745 27.1765 87.6063 27.1765C87.4962 27.1765 87.4391 27.0754 87.4391 26.8732V25.2437C87.4391 25.0172 87.4228 24.8151 87.3984 24.6371C85.6488 26.3273 83.7444 27.1724 81.689 27.1724C79.8538 27.1724 78.4102 26.6427 77.3539 25.5793C76.6892 24.9202 76.3548 23.7071 76.3548 21.9361V12.0699C76.3548 11.5119 76.2651 11.1722 76.0856 11.0469C75.9062 10.9215 75.4005 10.8447 74.5767 10.8205C73.859 10.7962 73.5001 10.6951 73.5001 10.5172C73.5001 10.315 73.6958 10.2139 74.0873 10.2139H74.5482C74.9682 10.2139 75.6044 10.2341 76.4608 10.2705C77.3131 10.3069 77.8963 10.3271 78.2022 10.3271C78.2593 10.3271 78.5447 10.3069 79.0627 10.2705C79.5806 10.2341 80.3432 10.2139 81.3505 10.2139H82.1498V14.3221C82.1498 16.2752 82.1213 17.7066 82.0642 18.6204C82.0071 19.5342 81.9785 19.9265 81.9785 19.8011C81.9785 22.4658 82.1661 24.1236 82.5454 24.7827C82.9246 25.4418 83.516 25.7734 84.3316 25.7734C85.2573 25.7734 86.1219 25.3043 86.9375 24.3703C87.1904 24.0913 87.3372 23.8082 87.378 23.5171C87.4187 23.226 87.4391 22.5103 87.4391 21.374V14.8478C87.4391 12.9999 87.4106 11.8879 87.3576 11.5079C87.3046 11.0267 86.9579 10.7881 86.3217 10.7881H85.1635C84.7761 10.7881 84.5844 10.687 84.5844 10.4848C84.5844 10.3352 85.3348 10.2584 86.8397 10.2584C88.1487 10.2584 90.2245 10.2463 93.067 10.222V22.5264C93.067 23.7112 93.0955 24.4148 93.1526 24.6291C93.2097 24.8434 93.4177 24.9889 93.7806 25.0658C94.0335 25.1143 94.7879 25.1426 96.0481 25.1426C96.411 25.1426 96.5945 25.2437 96.5945 25.4459V25.4378Z" fill="#E20505"/>
<path d="M112.593 12.6441C112.593 13.376 112.357 13.9744 111.879 14.4434C111.402 14.9125 110.786 15.143 110.032 15.143C108.519 15.143 107.765 14.5122 107.765 13.2506C107.765 12.822 107.948 12.3934 108.311 11.9648C108.397 11.8637 108.437 11.7747 108.437 11.6979C108.437 11.4715 108.258 11.3582 107.899 11.3582C106.961 11.3582 106.243 12.0254 105.746 13.3598C105.469 14.1159 105.33 15.9638 105.33 18.9115V24.993C105.33 25.6723 105.709 26.0362 106.464 26.0888C106.912 26.113 107.442 26.1252 108.058 26.1252C108.364 26.1494 108.519 26.2384 108.519 26.392C108.519 26.5942 108.393 26.6953 108.14 26.6953H103.646C103.756 26.6953 103.128 26.6953 101.757 26.6953H97.1369C96.827 26.6953 96.6761 26.6144 96.6761 26.4486C96.6761 26.2829 96.8719 26.202 97.2634 26.202C98.4093 26.1777 99.1026 26.0685 99.3432 25.8825C99.5797 25.6925 99.7021 25.1345 99.7021 24.2004L99.6613 14.0067C99.6613 13.1495 99.5267 12.5592 99.2617 12.2316C98.9966 11.9041 98.4012 11.7019 97.4754 11.6292C96.7454 11.5806 96.3336 11.5442 96.2357 11.524C96.1378 11.4998 96.0889 11.4189 96.0889 11.2774C96.0889 11.1358 96.199 11.0631 96.4233 11.0631H97.977C100.134 11.0631 102.455 10.6587 104.947 9.85001C105.085 10.3554 105.159 10.9337 105.159 11.5928V13.1819C105.689 11.9607 106.272 11.0995 106.9 10.5981C107.528 10.1007 108.348 9.85001 109.355 9.85001C110.305 9.85001 111.084 10.1169 111.688 10.6466C112.291 11.1763 112.589 11.8435 112.589 12.6522L112.593 12.6441Z" fill="#E20505"/>
<path d="M130.737 22.0331C130.737 22.5871 130.374 23.3189 129.644 24.2287C128.074 26.1737 126.03 27.1441 123.51 27.1441C120.68 27.1441 118.36 26.3354 116.537 24.722C114.718 23.1087 113.808 21.0384 113.808 18.5152C113.808 15.9921 114.689 13.9784 116.455 12.3246C118.221 10.6708 120.415 9.84595 123.049 9.84595C124.84 9.84595 126.369 10.2018 127.625 10.9053C129.024 11.6898 129.933 12.8098 130.353 14.2736C130.463 14.7265 130.549 15.2723 130.606 15.9031C129.962 15.9719 127.372 16.0204 122.837 16.0527C122.136 16.0527 121.255 16.077 120.191 16.1296C120.105 17.0353 120.064 17.7995 120.064 18.4303C120.064 21.37 120.749 23.4605 122.124 24.6897C122.935 25.4175 123.93 25.7814 125.105 25.7814C126.083 25.7814 127.03 25.4782 127.939 24.8717C128.848 24.2651 129.542 23.4847 130.019 22.5264C130.243 22.0452 130.423 21.8067 130.565 21.8067C130.675 21.8067 130.733 21.8835 130.733 22.0331H130.737ZM125.443 15.4098C125.472 13.4811 125.317 12.1427 124.982 11.3906C124.648 10.6385 124.057 10.2624 123.217 10.2624C121.508 10.2624 120.529 11.9809 120.276 15.4098H125.443Z" fill="#E20505"/>
<path d="M154.675 7.00743C154.675 7.20556 154.577 7.30665 154.382 7.30665C154.21 7.30665 154.092 7.24195 154.023 7.1166C153.953 6.99125 153.819 6.56264 153.623 5.83076C153.06 3.81305 151.98 2.46251 150.377 1.77916C149.423 1.37481 147.722 1.17263 145.279 1.17263C144.158 1.17263 142.865 1.20902 141.405 1.28585V12.8705H142.628C145.275 12.8705 146.927 12.6198 147.587 12.1144C148.248 11.6089 148.75 10.2099 149.084 7.91317C149.141 7.58565 149.28 7.41986 149.508 7.41986C149.737 7.41986 149.847 7.60991 149.847 7.98596C149.847 7.86061 149.83 8.03044 149.806 8.49544C149.777 8.96449 149.765 9.72467 149.765 10.7841V13.2425C149.765 15.0095 149.777 16.1781 149.806 16.7442C149.835 17.3103 149.847 17.7996 149.847 18.1999C149.847 18.6002 149.72 18.8064 149.467 18.8064C149.1 18.8064 148.892 18.4021 148.835 17.5934C148.697 15.7495 148.187 14.5526 147.318 13.9987C146.894 13.7197 146.152 13.5822 145.079 13.5822C143.644 13.5822 142.42 13.5943 141.409 13.6186V22.7812C141.409 24.3986 141.552 25.3448 141.833 25.6197C142.115 25.8987 143.093 26.0362 144.761 26.0362C145.271 26.0362 145.524 26.1373 145.524 26.3395C145.524 26.5659 145.259 26.6791 144.725 26.6791C144.109 26.6791 143.367 26.667 142.498 26.6427C140.761 26.5942 138.803 26.5659 136.617 26.5659C135.076 26.5659 133.718 26.5942 132.543 26.6508C132.376 26.671 132.18 26.6791 131.956 26.6791C131.622 26.6791 131.45 26.57 131.45 26.3556C131.45 26.1413 131.899 26.02 132.792 25.9958C134.109 25.9473 134.835 25.6683 134.978 25.1628C135.088 24.9606 135.145 24.6089 135.145 24.1034V2.15925C135.088 1.80746 134.925 1.56485 134.656 1.4395C134.387 1.31416 133.848 1.2252 133.041 1.17263C132.233 1.12411 131.83 1.00685 131.83 0.832977C131.83 0.582279 132.111 0.452886 132.67 0.452886H133.469C133.579 0.452886 134.643 0.440756 136.662 0.416495C138.901 0.367973 140.875 0.339668 142.584 0.339668C145.132 0.315407 147.286 0.315407 149.052 0.339668L151.951 0.452886C152.4 0.452886 153.073 0.416495 153.966 0.339668C154.19 3.33591 154.414 5.40619 154.639 6.55455C154.667 6.70416 154.679 6.85377 154.679 7.00338L154.675 7.00743Z" fill="black"/>
<path d="M175.213 18.6244C175.213 21.3255 174.038 23.509 171.685 25.1749C169.838 26.4891 167.807 27.1441 165.596 27.1441C162.966 27.1441 160.69 26.2909 158.77 24.5886C156.853 22.8863 155.895 20.8726 155.895 18.5516C155.895 16.2307 156.853 14.0674 158.77 12.361C160.686 10.6587 163.003 9.80551 165.719 9.80551C168.435 9.80551 170.555 10.6708 172.419 12.3974C174.279 14.128 175.213 16.2024 175.213 18.6244ZM168.871 18.6608C168.871 15.5311 168.635 13.3881 168.162 12.2235C167.631 10.9377 166.783 10.2948 165.617 10.2948C164.532 10.2948 163.684 10.97 163.072 12.3206C162.46 13.6711 162.155 15.5311 162.155 17.9047C162.155 21.2123 162.517 23.5575 163.239 24.9444C163.822 26.0564 164.642 26.6104 165.703 26.6104C167.012 26.6104 167.872 25.9027 168.292 24.4916C168.68 23.1532 168.875 21.2123 168.875 18.6608H168.871Z" fill="black"/>
<path d="M192.765 12.6441C192.765 13.376 192.528 13.9744 192.051 14.4434C191.574 14.9125 190.958 15.143 190.204 15.143C188.691 15.143 187.936 14.5122 187.936 13.2506C187.936 12.822 188.12 12.3934 188.483 11.9648C188.569 11.8637 188.609 11.7747 188.609 11.6979C188.609 11.4715 188.43 11.3582 188.071 11.3582C187.133 11.3582 186.415 12.0254 185.918 13.3598C185.64 14.1159 185.502 15.9638 185.502 18.9115V24.993C185.502 25.6723 185.881 26.0362 186.636 26.0888C187.084 26.113 187.614 26.1252 188.23 26.1252C188.536 26.1494 188.691 26.2384 188.691 26.392C188.691 26.5942 188.564 26.6953 188.312 26.6953H183.818C183.928 26.6953 183.3 26.6953 181.929 26.6953H177.309C176.999 26.6953 176.848 26.6144 176.848 26.4486C176.848 26.2829 177.044 26.202 177.435 26.202C178.581 26.1777 179.275 26.0685 179.515 25.8825C179.752 25.6925 179.874 25.1345 179.874 24.2004L179.833 14.0067C179.833 13.1495 179.699 12.5592 179.434 12.2316C179.168 11.9041 178.573 11.7019 177.647 11.6292C176.917 11.5806 176.505 11.5442 176.408 11.524C176.31 11.4998 176.261 11.4189 176.261 11.2774C176.261 11.1358 176.371 11.0631 176.595 11.0631H178.149C180.306 11.0631 182.627 10.6587 185.118 9.85001C185.257 10.3554 185.326 10.9337 185.326 11.5928V13.1819C185.857 11.9607 186.44 11.0995 187.068 10.5981C187.696 10.1007 188.516 9.85001 189.523 9.85001C190.473 9.85001 191.252 10.1169 191.851 10.6466C192.455 11.1763 192.753 11.8435 192.753 12.6522L192.765 12.6441Z" fill="black"/>
<path d="M210.028 13.7035C210.028 14.31 209.832 14.7993 209.44 15.1793C209.049 15.5594 208.543 15.7454 207.927 15.7454C206.443 15.7454 205.701 15.151 205.701 13.9663C205.701 13.663 205.791 13.3032 205.974 12.8867C206.158 12.4702 206.247 12.175 206.247 11.9971C206.247 11.5159 206.043 11.1075 205.64 10.7679C205.232 10.4282 204.738 10.2584 204.147 10.2584C201.598 10.2584 200.326 12.822 200.326 17.9411C200.326 20.8686 200.885 22.9631 202.006 24.2247C202.875 25.183 203.939 25.6642 205.199 25.6642C206.459 25.6642 207.858 24.8959 209.232 23.3553C209.4 23.1532 209.555 23.0521 209.693 23.0521C209.803 23.0521 209.86 23.1289 209.86 23.2785C209.86 23.7597 209.355 24.4269 208.347 25.2841C206.892 26.5214 205.142 27.1401 203.099 27.1401C200.579 27.1401 198.429 26.3273 196.651 24.6978C194.873 23.0682 193.984 21.095 193.984 18.774C193.984 16.2509 194.922 14.124 196.798 12.3974C198.674 10.6708 200.982 9.80551 203.727 9.80551C205.493 9.80551 206.981 10.1856 208.201 10.9417C209.42 11.6979 210.028 12.6198 210.028 13.7035Z" fill="black"/>
<path d="M228 22.0331C228 22.5871 227.637 23.3189 226.907 24.2287C225.337 26.1737 223.294 27.1441 220.774 27.1441C217.943 27.1441 215.623 26.3354 213.8 24.722C211.981 23.1087 211.072 21.0384 211.072 18.5152C211.072 15.9921 211.953 13.9784 213.718 12.3246C215.484 10.6708 217.678 9.84595 220.313 9.84595C222.103 9.84595 223.632 10.2018 224.888 10.9053C226.287 11.6898 227.197 12.8098 227.617 14.2736C227.727 14.7265 227.812 15.2723 227.869 15.9031C227.225 15.9719 224.636 16.0204 220.101 16.0527C219.399 16.0527 218.518 16.077 217.454 16.1296C217.368 17.0353 217.328 17.7995 217.328 18.4303C217.328 21.37 218.013 23.4605 219.387 24.6897C220.199 25.4175 221.194 25.7814 222.368 25.7814C223.347 25.7814 224.293 25.4782 225.202 24.8717C226.112 24.2651 226.805 23.4847 227.282 22.5264C227.507 22.0452 227.686 21.8067 227.829 21.8067C227.939 21.8067 227.996 21.8835 227.996 22.0331H228ZM222.707 15.4098C222.735 13.4811 222.58 12.1427 222.246 11.3906C221.911 10.6385 221.32 10.2624 220.48 10.2624C218.771 10.2624 217.792 11.9809 217.54 15.4098H222.707Z" fill="black"/>
</g>
<defs>
<clipPath id="clip0_3_240">
<rect width="228" height="42" fill="white"/>
</clipPath>
</defs>
</svg>
